<?xml version="1.0" encoding="utf-8" standalone="no"?>
<!DOCTYPE svg PUBLIC "-//W3C//DTD SVG 1.1//EN"
  "http://www.w3.org/Graphics/SVG/1.1/DTD/svg11.dtd">
<!-- Created with matplotlib (https://matplotlib.org/) -->
<svg height="389.52pt" version="1.1" viewBox="0 0 689.04 389.52" width="689.04pt" xmlns="http://www.w3.org/2000/svg" xmlns:xlink="http://www.w3.org/1999/xlink">
 <metadata>
  <rdf:RDF xmlns:cc="http://creativecommons.org/ns#" xmlns:dc="http://purl.org/dc/elements/1.1/" xmlns:rdf="http://www.w3.org/1999/02/22-rdf-syntax-ns#">
   <cc:Work>
    <dc:type rdf:resource="http://purl.org/dc/dcmitype/StillImage"/>
    <dc:date>2020-11-25T13:08:41.881189</dc:date>
    <dc:format>image/svg+xml</dc:format>
    <dc:creator>
     <cc:Agent>
      <dc:title>Matplotlib v3.3.2, https://matplotlib.org/</dc:title>
     </cc:Agent>
    </dc:creator>
   </cc:Work>
  </rdf:RDF>
 </metadata>
 <defs>
  <style type="text/css">*{stroke-linecap:butt;stroke-linejoin:round;}</style>
 </defs>
 <g id="figure_1">
  <g id="patch_1">
   <path d="M 0 389.52 
L 689.04 389.52 
L 689.04 0 
L 0 0 
z
" style="fill:#ffffff;"/>
  </g>
  <g id="axes_1">
   <g id="patch_2">
    <path d="M 86.13 346.6728 
L 620.136 346.6728 
L 620.136 46.7424 
L 86.13 46.7424 
z
" style="fill:#ffffff;"/>
   </g>
   <g id="matplotlib.axis_1">
    <g id="xtick_1">
     <g id="line2d_1">
      <defs>
       <path d="M 0 0 
L 0 3.5 
" id="mce2d733316" style="stroke:#000000;stroke-width:0.8;"/>
      </defs>
      <g>
       <use style="stroke:#000000;stroke-width:0.8;" x="110.403" xlink:href="#mce2d733316" y="346.6728"/>
      </g>
     </g>
     <g id="text_1">
      <!-- −1.0 -->
      <g transform="translate(98.261594 361.271237)scale(0.1 -0.1)">
       <defs>
        <path d="M 10.59375 35.5 
L 73.1875 35.5 
L 73.1875 27.203125 
L 10.59375 27.203125 
z
" id="DejaVuSans-8722"/>
        <path d="M 12.40625 8.296875 
L 28.515625 8.296875 
L 28.515625 63.921875 
L 10.984375 60.40625 
L 10.984375 69.390625 
L 28.421875 72.90625 
L 38.28125 72.90625 
L 38.28125 8.296875 
L 54.390625 8.296875 
L 54.390625 0 
L 12.40625 0 
z
" id="DejaVuSans-49"/>
        <path d="M 10.6875 12.40625 
L 21 12.40625 
L 21 0 
L 10.6875 0 
z
" id="DejaVuSans-46"/>
        <path d="M 31.78125 66.40625 
Q 24.171875 66.40625 20.328125 58.90625 
Q 16.5 51.421875 16.5 36.375 
Q 16.5 21.390625 20.328125 13.890625 
Q 24.171875 6.390625 31.78125 6.390625 
Q 39.453125 6.390625 43.28125 13.890625 
Q 47.125 21.390625 47.125 36.375 
Q 47.125 51.421875 43.28125 58.90625 
Q 39.453125 66.40625 31.78125 66.40625 
z
M 31.78125 74.21875 
Q 44.046875 74.21875 50.515625 64.515625 
Q 56.984375 54.828125 56.984375 36.375 
Q 56.984375 17.96875 50.515625 8.265625 
Q 44.046875 -1.421875 31.78125 -1.421875 
Q 19.53125 -1.421875 13.0625 8.265625 
Q 6.59375 17.96875 6.59375 36.375 
Q 6.59375 54.828125 13.0625 64.515625 
Q 19.53125 74.21875 31.78125 74.21875 
z
" id="DejaVuSans-48"/>
       </defs>
       <use xlink:href="#DejaVuSans-8722"/>
       <use x="83.789062" xlink:href="#DejaVuSans-49"/>
       <use x="147.412109" xlink:href="#DejaVuSans-46"/>
       <use x="179.199219" xlink:href="#DejaVuSans-48"/>
      </g>
     </g>
    </g>
    <g id="xtick_2">
     <g id="line2d_2">
      <g>
       <use style="stroke:#000000;stroke-width:0.8;" x="191.583602" xlink:href="#mce2d733316" y="346.6728"/>
      </g>
     </g>
     <g id="text_2">
      <!-- −0.5 -->
      <g transform="translate(179.442196 361.271237)scale(0.1 -0.1)">
       <defs>
        <path d="M 10.796875 72.90625 
L 49.515625 72.90625 
L 49.515625 64.59375 
L 19.828125 64.59375 
L 19.828125 46.734375 
Q 21.96875 47.46875 24.109375 47.828125 
Q 26.265625 48.1875 28.421875 48.1875 
Q 40.625 48.1875 47.75 41.5 
Q 54.890625 34.8125 54.890625 23.390625 
Q 54.890625 11.625 47.5625 5.09375 
Q 40.234375 -1.421875 26.90625 -1.421875 
Q 22.3125 -1.421875 17.546875 -0.640625 
Q 12.796875 0.140625 7.71875 1.703125 
L 7.71875 11.625 
Q 12.109375 9.234375 16.796875 8.0625 
Q 21.484375 6.890625 26.703125 6.890625 
Q 35.15625 6.890625 40.078125 11.328125 
Q 45.015625 15.765625 45.015625 23.390625 
Q 45.015625 31 40.078125 35.4375 
Q 35.15625 39.890625 26.703125 39.890625 
Q 22.75 39.890625 18.8125 39.015625 
Q 14.890625 38.140625 10.796875 36.28125 
z
" id="DejaVuSans-53"/>
       </defs>
       <use xlink:href="#DejaVuSans-8722"/>
       <use x="83.789062" xlink:href="#DejaVuSans-48"/>
       <use x="147.412109" xlink:href="#DejaVuSans-46"/>
       <use x="179.199219" xlink:href="#DejaVuSans-53"/>
      </g>
     </g>
    </g>
    <g id="xtick_3">
     <g id="line2d_3">
      <g>
       <use style="stroke:#000000;stroke-width:0.8;" x="272.764204" xlink:href="#mce2d733316" y="346.6728"/>
      </g>
     </g>
     <g id="text_3">
      <!-- 0.0 -->
      <g transform="translate(264.812642 361.271237)scale(0.1 -0.1)">
       <use xlink:href="#DejaVuSans-48"/>
       <use x="63.623047" xlink:href="#DejaVuSans-46"/>
       <use x="95.410156" xlink:href="#DejaVuSans-48"/>
      </g>
     </g>
    </g>
    <g id="xtick_4">
     <g id="line2d_4">
      <g>
       <use style="stroke:#000000;stroke-width:0.8;" x="353.944806" xlink:href="#mce2d733316" y="346.6728"/>
      </g>
     </g>
     <g id="text_4">
      <!-- 0.5 -->
      <g transform="translate(345.993244 361.271237)scale(0.1 -0.1)">
       <use xlink:href="#DejaVuSans-48"/>
       <use x="63.623047" xlink:href="#DejaVuSans-46"/>
       <use x="95.410156" xlink:href="#DejaVuSans-53"/>
      </g>
     </g>
    </g>
    <g id="xtick_5">
     <g id="line2d_5">
      <g>
       <use style="stroke:#000000;stroke-width:0.8;" x="435.125408" xlink:href="#mce2d733316" y="346.6728"/>
      </g>
     </g>
     <g id="text_5">
      <!-- 1.0 -->
      <g transform="translate(427.173846 361.271237)scale(0.1 -0.1)">
       <use xlink:href="#DejaVuSans-49"/>
       <use x="63.623047" xlink:href="#DejaVuSans-46"/>
       <use x="95.410156" xlink:href="#DejaVuSans-48"/>
      </g>
     </g>
    </g>
    <g id="xtick_6">
     <g id="line2d_6">
      <g>
       <use style="stroke:#000000;stroke-width:0.8;" x="516.30601" xlink:href="#mce2d733316" y="346.6728"/>
      </g>
     </g>
     <g id="text_6">
      <!-- 1.5 -->
      <g transform="translate(508.354448 361.271237)scale(0.1 -0.1)">
       <use xlink:href="#DejaVuSans-49"/>
       <use x="63.623047" xlink:href="#DejaVuSans-46"/>
       <use x="95.410156" xlink:href="#DejaVuSans-53"/>
      </g>
     </g>
    </g>
    <g id="xtick_7">
     <g id="line2d_7">
      <g>
       <use style="stroke:#000000;stroke-width:0.8;" x="597.486612" xlink:href="#mce2d733316" y="346.6728"/>
      </g>
     </g>
     <g id="text_7">
      <!-- 2.0 -->
      <g transform="translate(589.53505 361.271237)scale(0.1 -0.1)">
       <defs>
        <path d="M 19.1875 8.296875 
L 53.609375 8.296875 
L 53.609375 0 
L 7.328125 0 
L 7.328125 8.296875 
Q 12.9375 14.109375 22.625 23.890625 
Q 32.328125 33.6875 34.8125 36.53125 
Q 39.546875 41.84375 41.421875 45.53125 
Q 43.3125 49.21875 43.3125 52.78125 
Q 43.3125 58.59375 39.234375 62.25 
Q 35.15625 65.921875 28.609375 65.921875 
Q 23.96875 65.921875 18.8125 64.3125 
Q 13.671875 62.703125 7.8125 59.421875 
L 7.8125 69.390625 
Q 13.765625 71.78125 18.9375 73 
Q 24.125 74.21875 28.421875 74.21875 
Q 39.75 74.21875 46.484375 68.546875 
Q 53.21875 62.890625 53.21875 53.421875 
Q 53.21875 48.921875 51.53125 44.890625 
Q 49.859375 40.875 45.40625 35.40625 
Q 44.1875 33.984375 37.640625 27.21875 
Q 31.109375 20.453125 19.1875 8.296875 
z
" id="DejaVuSans-50"/>
       </defs>
       <use xlink:href="#DejaVuSans-50"/>
       <use x="63.623047" xlink:href="#DejaVuSans-46"/>
       <use x="95.410156" xlink:href="#DejaVuSans-48"/>
      </g>
     </g>
    </g>
    <g id="text_8">
     <!-- x -->
     <g transform="translate(350.173625 374.949363)scale(0.1 -0.1)">
      <defs>
       <path d="M 54.890625 54.6875 
L 35.109375 28.078125 
L 55.90625 0 
L 45.3125 0 
L 29.390625 21.484375 
L 13.484375 0 
L 2.875 0 
L 24.125 28.609375 
L 4.6875 54.6875 
L 15.28125 54.6875 
L 29.78125 35.203125 
L 44.28125 54.6875 
z
" id="DejaVuSans-120"/>
      </defs>
      <use xlink:href="#DejaVuSans-120"/>
     </g>
    </g>
   </g>
   <g id="matplotlib.axis_2">
    <g id="ytick_1">
     <g id="line2d_8">
      <defs>
       <path d="M 0 0 
L -3.5 0 
" id="mbf7fe658a9" style="stroke:#000000;stroke-width:0.8;"/>
      </defs>
      <g>
       <use style="stroke:#000000;stroke-width:0.8;" x="86.13" xlink:href="#mbf7fe658a9" y="336.627284"/>
      </g>
     </g>
     <g id="text_9">
      <!-- 0.0 -->
      <g transform="translate(63.226875 340.426503)scale(0.1 -0.1)">
       <use xlink:href="#DejaVuSans-48"/>
       <use x="63.623047" xlink:href="#DejaVuSans-46"/>
       <use x="95.410156" xlink:href="#DejaVuSans-48"/>
      </g>
     </g>
    </g>
    <g id="ytick_2">
     <g id="line2d_9">
      <g>
       <use style="stroke:#000000;stroke-width:0.8;" x="86.13" xlink:href="#mbf7fe658a9" y="300.750442"/>
      </g>
     </g>
     <g id="text_10">
      <!-- 0.5 -->
      <g transform="translate(63.226875 304.549661)scale(0.1 -0.1)">
       <use xlink:href="#DejaVuSans-48"/>
       <use x="63.623047" xlink:href="#DejaVuSans-46"/>
       <use x="95.410156" xlink:href="#DejaVuSans-53"/>
      </g>
     </g>
    </g>
    <g id="ytick_3">
     <g id="line2d_10">
      <g>
       <use style="stroke:#000000;stroke-width:0.8;" x="86.13" xlink:href="#mbf7fe658a9" y="264.8736"/>
      </g>
     </g>
     <g id="text_11">
      <!-- 1.0 -->
      <g transform="translate(63.226875 268.672819)scale(0.1 -0.1)">
       <use xlink:href="#DejaVuSans-49"/>
       <use x="63.623047" xlink:href="#DejaVuSans-46"/>
       <use x="95.410156" xlink:href="#DejaVuSans-48"/>
      </g>
     </g>
    </g>
    <g id="ytick_4">
     <g id="line2d_11">
      <g>
       <use style="stroke:#000000;stroke-width:0.8;" x="86.13" xlink:href="#mbf7fe658a9" y="228.996758"/>
      </g>
     </g>
     <g id="text_12">
      <!-- 1.5 -->
      <g transform="translate(63.226875 232.795977)scale(0.1 -0.1)">
       <use xlink:href="#DejaVuSans-49"/>
       <use x="63.623047" xlink:href="#DejaVuSans-46"/>
       <use x="95.410156" xlink:href="#DejaVuSans-53"/>
      </g>
     </g>
    </g>
    <g id="ytick_5">
     <g id="line2d_12">
      <g>
       <use style="stroke:#000000;stroke-width:0.8;" x="86.13" xlink:href="#mbf7fe658a9" y="193.119916"/>
      </g>
     </g>
     <g id="text_13">
      <!-- 2.0 -->
      <g transform="translate(63.226875 196.919135)scale(0.1 -0.1)">
       <use xlink:href="#DejaVuSans-50"/>
       <use x="63.623047" xlink:href="#DejaVuSans-46"/>
       <use x="95.410156" xlink:href="#DejaVuSans-48"/>
      </g>
     </g>
    </g>
    <g id="ytick_6">
     <g id="line2d_13">
      <g>
       <use style="stroke:#000000;stroke-width:0.8;" x="86.13" xlink:href="#mbf7fe658a9" y="157.243074"/>
      </g>
     </g>
     <g id="text_14">
      <!-- 2.5 -->
      <g transform="translate(63.226875 161.042292)scale(0.1 -0.1)">
       <use xlink:href="#DejaVuSans-50"/>
       <use x="63.623047" xlink:href="#DejaVuSans-46"/>
       <use x="95.410156" xlink:href="#DejaVuSans-53"/>
      </g>
     </g>
    </g>
    <g id="ytick_7">
     <g id="line2d_14">
      <g>
       <use style="stroke:#000000;stroke-width:0.8;" x="86.13" xlink:href="#mbf7fe658a9" y="121.366232"/>
      </g>
     </g>
     <g id="text_15">
      <!-- 3.0 -->
      <g transform="translate(63.226875 125.16545)scale(0.1 -0.1)">
       <defs>
        <path d="M 40.578125 39.3125 
Q 47.65625 37.796875 51.625 33 
Q 55.609375 28.21875 55.609375 21.1875 
Q 55.609375 10.40625 48.1875 4.484375 
Q 40.765625 -1.421875 27.09375 -1.421875 
Q 22.515625 -1.421875 17.65625 -0.515625 
Q 12.796875 0.390625 7.625 2.203125 
L 7.625 11.71875 
Q 11.71875 9.328125 16.59375 8.109375 
Q 21.484375 6.890625 26.8125 6.890625 
Q 36.078125 6.890625 40.9375 10.546875 
Q 45.796875 14.203125 45.796875 21.1875 
Q 45.796875 27.640625 41.28125 31.265625 
Q 36.765625 34.90625 28.71875 34.90625 
L 20.21875 34.90625 
L 20.21875 43.015625 
L 29.109375 43.015625 
Q 36.375 43.015625 40.234375 45.921875 
Q 44.09375 48.828125 44.09375 54.296875 
Q 44.09375 59.90625 40.109375 62.90625 
Q 36.140625 65.921875 28.71875 65.921875 
Q 24.65625 65.921875 20.015625 65.03125 
Q 15.375 64.15625 9.8125 62.3125 
L 9.8125 71.09375 
Q 15.4375 72.65625 20.34375 73.4375 
Q 25.25 74.21875 29.59375 74.21875 
Q 40.828125 74.21875 47.359375 69.109375 
Q 53.90625 64.015625 53.90625 55.328125 
Q 53.90625 49.265625 50.4375 45.09375 
Q 46.96875 40.921875 40.578125 39.3125 
z
" id="DejaVuSans-51"/>
       </defs>
       <use xlink:href="#DejaVuSans-51"/>
       <use x="63.623047" xlink:href="#DejaVuSans-46"/>
       <use x="95.410156" xlink:href="#DejaVuSans-48"/>
      </g>
     </g>
    </g>
    <g id="ytick_8">
     <g id="line2d_15">
      <g>
       <use style="stroke:#000000;stroke-width:0.8;" x="86.13" xlink:href="#mbf7fe658a9" y="85.489389"/>
      </g>
     </g>
     <g id="text_16">
      <!-- 3.5 -->
      <g transform="translate(63.226875 89.288608)scale(0.1 -0.1)">
       <use xlink:href="#DejaVuSans-51"/>
       <use x="63.623047" xlink:href="#DejaVuSans-46"/>
       <use x="95.410156" xlink:href="#DejaVuSans-53"/>
      </g>
     </g>
    </g>
    <g id="ytick_9">
     <g id="line2d_16">
      <g>
       <use style="stroke:#000000;stroke-width:0.8;" x="86.13" xlink:href="#mbf7fe658a9" y="49.612547"/>
      </g>
     </g>
     <g id="text_17">
      <!-- 4.0 -->
      <g transform="translate(63.226875 53.411766)scale(0.1 -0.1)">
       <defs>
        <path d="M 37.796875 64.3125 
L 12.890625 25.390625 
L 37.796875 25.390625 
z
M 35.203125 72.90625 
L 47.609375 72.90625 
L 47.609375 25.390625 
L 58.015625 25.390625 
L 58.015625 17.1875 
L 47.609375 17.1875 
L 47.609375 0 
L 37.796875 0 
L 37.796875 17.1875 
L 4.890625 17.1875 
L 4.890625 26.703125 
z
" id="DejaVuSans-52"/>
       </defs>
       <use xlink:href="#DejaVuSans-52"/>
       <use x="63.623047" xlink:href="#DejaVuSans-46"/>
       <use x="95.410156" xlink:href="#DejaVuSans-48"/>
      </g>
     </g>
    </g>
    <g id="text_18">
     <!-- y -->
     <g transform="translate(57.147187 199.666975)rotate(-90)scale(0.1 -0.1)">
      <defs>
       <path d="M 32.171875 -5.078125 
Q 28.375 -14.84375 24.75 -17.8125 
Q 21.140625 -20.796875 15.09375 -20.796875 
L 7.90625 -20.796875 
L 7.90625 -13.28125 
L 13.1875 -13.28125 
Q 16.890625 -13.28125 18.9375 -11.515625 
Q 21 -9.765625 23.484375 -3.21875 
L 25.09375 0.875 
L 2.984375 54.6875 
L 12.5 54.6875 
L 29.59375 11.921875 
L 46.6875 54.6875 
L 56.203125 54.6875 
z
" id="DejaVuSans-121"/>
      </defs>
      <use xlink:href="#DejaVuSans-121"/>
     </g>
    </g>
   </g>
   <g id="line2d_17">
    <path clip-path="url(#pe653c823d6)" d="M 110.403 193.119916 
L 112.026612 215.071293 
L 113.650224 234.452158 
L 115.273836 249.428367 
L 116.897448 258.632052 
L 118.52106 261.285916 
L 120.144672 257.267216 
L 121.768284 247.106369 
L 123.391896 231.921613 
L 125.015508 213.297444 
L 128.262732 173.38585 
L 129.886344 156.005249 
L 131.509957 142.616459 
L 133.133569 134.43196 
L 134.757181 132.129284 
L 136.380793 135.796796 
L 138.004405 144.938457 
L 139.628017 158.535795 
L 141.251629 175.159698 
L 144.498853 210.636671 
L 146.122465 226.017007 
L 147.746077 237.818377 
L 149.369689 244.983691 
L 150.993301 246.935179 
L 152.616913 243.618854 
L 154.240525 235.496379 
L 155.864137 223.486461 
L 157.487749 208.862822 
L 160.734973 177.820471 
L 162.358585 164.440401 
L 163.982197 154.226449 
L 165.605809 148.080322 
L 167.229421 146.480021 
L 168.853033 149.445158 
L 170.476645 156.548447 
L 172.100258 166.970946 
L 173.72387 179.59432 
L 176.971094 206.202049 
L 178.594706 217.581855 
L 180.218318 226.208387 
L 181.84193 231.335329 
L 183.465542 232.584442 
L 185.089154 229.970493 
L 186.712766 223.886389 
L 188.336378 215.05131 
L 191.583602 193.119916 
L 193.207214 182.255093 
L 194.830826 172.875552 
L 196.454438 165.836439 
L 198.07805 161.728684 
L 199.701662 160.830758 
L 201.325274 163.09352 
L 202.948886 168.158437 
L 204.572498 175.406098 
L 209.443334 201.767428 
L 211.066946 209.146704 
L 212.690559 214.598397 
L 214.314171 217.686967 
L 215.937783 218.233705 
L 217.561395 216.322131 
L 219.185007 212.276399 
L 220.808619 206.616158 
L 225.679455 186.689715 
L 227.303067 181.310704 
L 228.926679 177.446429 
L 230.550291 175.377045 
L 232.173903 175.181495 
L 233.797515 176.741882 
L 235.421127 179.768427 
L 237.044739 183.841249 
L 240.291963 193.119916 
L 241.915575 197.332806 
L 243.539187 200.711552 
L 245.162799 202.988407 
L 246.786411 204.038605 
L 248.410023 203.882968 
L 250.033635 202.673769 
L 251.657247 200.666409 
L 256.528084 193.119916 
L 258.151696 191.124336 
L 259.775308 189.745855 
L 261.39892 189.056419 
L 263.022532 189.025407 
L 264.646144 189.532232 
L 266.269756 190.390243 
L 269.51698 192.276401 
L 271.140592 192.898185 
L 272.764204 193.119916 
L 274.387816 192.898185 
L 276.011428 192.276401 
L 280.882264 189.532232 
L 282.505876 189.025407 
L 284.129488 189.056419 
L 285.7531 189.745855 
L 287.376712 191.124336 
L 289.000324 193.119916 
L 292.247548 198.181007 
L 293.871161 200.666409 
L 295.494773 202.673769 
L 297.118385 203.882968 
L 298.741997 204.038605 
L 300.365609 202.988407 
L 301.989221 200.711552 
L 303.612833 197.332806 
L 305.236445 193.119916 
L 308.483669 183.841249 
L 310.107281 179.768427 
L 311.730893 176.741882 
L 313.354505 175.181495 
L 314.978117 175.377045 
L 316.601729 177.446429 
L 318.225341 181.310704 
L 319.848953 186.689715 
L 323.096177 199.993579 
L 324.719789 206.616158 
L 326.343401 212.276399 
L 327.967013 216.322131 
L 329.590625 218.233705 
L 331.214237 217.686967 
L 332.837849 214.598397 
L 334.461462 209.146704 
L 336.085074 201.767428 
L 340.95591 175.406098 
L 342.579522 168.158437 
L 344.203134 163.09352 
L 345.826746 160.830758 
L 347.450358 161.728684 
L 349.07397 165.836439 
L 350.697582 172.875552 
L 352.321194 182.255093 
L 357.19203 215.05131 
L 358.815642 223.886389 
L 360.439254 229.970493 
L 362.062866 232.584442 
L 363.686478 231.335329 
L 365.31009 226.208387 
L 366.933702 217.581855 
L 368.557314 206.202049 
L 373.428151 166.970946 
L 375.051763 156.548447 
L 376.675375 149.445158 
L 378.298987 146.480021 
L 379.922599 148.080322 
L 381.546211 154.226449 
L 383.169823 164.440401 
L 384.793435 177.820471 
L 389.664271 223.486461 
L 391.287883 235.496379 
L 392.911495 243.618854 
L 394.535107 246.935179 
L 396.158719 244.983691 
L 397.782331 237.818377 
L 399.405943 226.017007 
L 401.029555 210.636671 
L 405.900391 158.535795 
L 407.524003 144.938457 
L 409.147615 135.796796 
L 410.771227 132.129284 
L 412.394839 134.43196 
L 414.018452 142.616459 
L 415.642064 156.005249 
L 417.265676 173.38585 
L 422.136512 231.921613 
L 423.760124 247.106369 
L 425.383736 257.267216 
L 427.007348 261.285916 
L 428.63096 258.632052 
L 430.254572 249.428367 
L 431.878184 234.452158 
L 433.501796 215.071293 
L 438.372632 150.100643 
L 439.996244 133.328467 
L 441.619856 122.148434 
L 443.243468 117.778547 
L 444.86708 120.783598 
L 446.490692 131.006469 
L 448.114304 147.570098 
L 449.737916 168.951228 
L 454.608753 240.356764 
L 456.232365 258.716359 
L 457.855977 270.915578 
L 459.479589 275.636653 
L 461.103201 272.280414 
L 462.726813 261.038357 
L 464.350425 242.887309 
L 465.974037 219.505914 
L 470.844873 141.665492 
L 472.468485 121.718477 
L 474.092097 108.500073 
L 475.715709 103.427811 
L 477.339321 107.135237 
L 478.962933 119.396479 
L 480.586545 139.134946 
L 482.210157 164.516607 
L 487.080993 248.791916 
L 488.704605 270.326349 
L 490.328217 284.56394 
L 491.951829 289.987389 
L 493.575441 285.928776 
L 495.199054 272.648347 
L 496.822666 251.322461 
L 498.446278 223.940536 
L 503.317114 133.23034 
L 504.940726 110.108487 
L 506.564338 94.851711 
L 508.18795 89.077074 
L 509.811562 93.486875 
L 511.435174 107.786489 
L 513.058786 130.699795 
L 514.682398 160.081985 
L 519.553234 257.227067 
L 521.176846 281.936339 
L 522.800458 298.212302 
L 524.42407 304.338126 
L 526.047682 299.577138 
L 527.671294 284.258337 
L 529.294906 259.757612 
L 530.918518 228.375157 
L 535.789355 124.795189 
L 537.412967 98.498497 
L 539.036579 81.203349 
L 540.660191 74.726337 
L 542.283803 79.838513 
L 543.907415 96.176499 
L 545.531027 122.264643 
L 547.154639 155.647364 
L 552.025475 265.662218 
L 553.649087 293.546329 
L 555.272699 311.860663 
L 556.896311 318.688863 
L 558.519923 313.2255 
L 560.143535 295.868327 
L 561.767147 268.192764 
L 563.390759 232.809779 
L 568.261595 116.360037 
L 569.885207 86.888507 
L 571.508819 67.554987 
L 573.132431 60.3756 
L 574.756043 66.190151 
L 576.379656 84.566509 
L 578.003268 113.829492 
L 579.62688 151.212742 
L 584.497716 274.09737 
L 586.121328 305.156319 
L 587.74494 325.509025 
L 589.368552 333.0396 
L 590.992164 326.873861 
L 592.615776 307.478317 
L 594.239388 276.627915 
L 595.863 237.2444 
L 595.863 237.2444 
" style="fill:none;stroke:#1f77b4;stroke-linecap:square;stroke-width:1.5;"/>
   </g>
   <g id="patch_3">
    <path d="M 86.13 346.6728 
L 86.13 46.7424 
" style="fill:none;stroke:#000000;stroke-linecap:square;stroke-linejoin:miter;stroke-width:0.8;"/>
   </g>
   <g id="patch_4">
    <path d="M 620.136 346.6728 
L 620.136 46.7424 
" style="fill:none;stroke:#000000;stroke-linecap:square;stroke-linejoin:miter;stroke-width:0.8;"/>
   </g>
   <g id="patch_5">
    <path d="M 86.13 346.6728 
L 620.136 346.6728 
" style="fill:none;stroke:#000000;stroke-linecap:square;stroke-linejoin:miter;stroke-width:0.8;"/>
   </g>
   <g id="patch_6">
    <path d="M 86.13 46.7424 
L 620.136 46.7424 
" style="fill:none;stroke:#000000;stroke-linecap:square;stroke-linejoin:miter;stroke-width:0.8;"/>
   </g>
   <g id="text_19">
    <!-- $\mathrm{f}(x)\triangleq x\sin{\left({10\pi\cdot x}\right)}+2.0$ -->
    <g transform="translate(284.973 40.7424)scale(0.12 -0.12)">
     <defs>
      <path d="M 37.109375 75.984375 
L 37.109375 68.5 
L 28.515625 68.5 
Q 23.6875 68.5 21.796875 66.546875 
Q 19.921875 64.59375 19.921875 59.515625 
L 19.921875 54.6875 
L 34.71875 54.6875 
L 34.71875 47.703125 
L 19.921875 47.703125 
L 19.921875 0 
L 10.890625 0 
L 10.890625 47.703125 
L 2.296875 47.703125 
L 2.296875 54.6875 
L 10.890625 54.6875 
L 10.890625 58.5 
Q 10.890625 67.625 15.140625 71.796875 
Q 19.390625 75.984375 28.609375 75.984375 
z
" id="DejaVuSans-102"/>
      <path d="M 31 75.875 
Q 24.46875 64.65625 21.28125 53.65625 
Q 18.109375 42.671875 18.109375 31.390625 
Q 18.109375 20.125 21.3125 9.0625 
Q 24.515625 -2 31 -13.1875 
L 23.1875 -13.1875 
Q 15.875 -1.703125 12.234375 9.375 
Q 8.59375 20.453125 8.59375 31.390625 
Q 8.59375 42.28125 12.203125 53.3125 
Q 15.828125 64.359375 23.1875 75.875 
z
" id="DejaVuSans-40"/>
      <path d="M 60.015625 54.6875 
L 34.90625 27.875 
L 50.296875 0 
L 39.984375 0 
L 28.421875 21.6875 
L 8.296875 0 
L -2.59375 0 
L 24.3125 28.8125 
L 10.015625 54.6875 
L 20.3125 54.6875 
L 30.8125 34.90625 
L 49.125 54.6875 
z
" id="DejaVuSans-Oblique-120"/>
      <path d="M 8.015625 75.875 
L 15.828125 75.875 
Q 23.140625 64.359375 26.78125 53.3125 
Q 30.421875 42.28125 30.421875 31.390625 
Q 30.421875 20.453125 26.78125 9.375 
Q 23.140625 -1.703125 15.828125 -13.1875 
L 8.015625 -13.1875 
Q 14.5 -2 17.703125 9.0625 
Q 20.90625 20.125 20.90625 31.390625 
Q 20.90625 42.671875 17.703125 53.65625 
Q 14.5 64.65625 8.015625 75.875 
z
" id="DejaVuSans-41"/>
      <path d="M 10.59375 45.40625 
L 73.1875 45.40625 
L 73.1875 37.203125 
L 10.59375 37.203125 
z
M 10.59375 25.484375 
L 73.1875 25.484375 
L 73.1875 17.1875 
L 10.59375 17.1875 
z
M 41.9375 76.5625 
L 33.84375 55.375 
L 50.140625 55.375 
z
M 39.265625 85.359375 
L 44.734375 85.359375 
L 58.84375 49.359375 
L 25.140625 49.359375 
z
" id="DejaVuSans-8796"/>
      <path d="M 44.28125 53.078125 
L 44.28125 44.578125 
Q 40.484375 46.53125 36.375 47.5 
Q 32.28125 48.484375 27.875 48.484375 
Q 21.1875 48.484375 17.84375 46.4375 
Q 14.5 44.390625 14.5 40.28125 
Q 14.5 37.15625 16.890625 35.375 
Q 19.28125 33.59375 26.515625 31.984375 
L 29.59375 31.296875 
Q 39.15625 29.25 43.1875 25.515625 
Q 47.21875 21.78125 47.21875 15.09375 
Q 47.21875 7.46875 41.1875 3.015625 
Q 35.15625 -1.421875 24.609375 -1.421875 
Q 20.21875 -1.421875 15.453125 -0.5625 
Q 10.6875 0.296875 5.421875 2 
L 5.421875 11.28125 
Q 10.40625 8.6875 15.234375 7.390625 
Q 20.0625 6.109375 24.8125 6.109375 
Q 31.15625 6.109375 34.5625 8.28125 
Q 37.984375 10.453125 37.984375 14.40625 
Q 37.984375 18.0625 35.515625 20.015625 
Q 33.0625 21.96875 24.703125 23.78125 
L 21.578125 24.515625 
Q 13.234375 26.265625 9.515625 29.90625 
Q 5.8125 33.546875 5.8125 39.890625 
Q 5.8125 47.609375 11.28125 51.796875 
Q 16.75 56 26.8125 56 
Q 31.78125 56 36.171875 55.265625 
Q 40.578125 54.546875 44.28125 53.078125 
z
" id="DejaVuSans-115"/>
      <path d="M 9.421875 54.6875 
L 18.40625 54.6875 
L 18.40625 0 
L 9.421875 0 
z
M 9.421875 75.984375 
L 18.40625 75.984375 
L 18.40625 64.59375 
L 9.421875 64.59375 
z
" id="DejaVuSans-105"/>
      <path d="M 54.890625 33.015625 
L 54.890625 0 
L 45.90625 0 
L 45.90625 32.71875 
Q 45.90625 40.484375 42.875 44.328125 
Q 39.84375 48.1875 33.796875 48.1875 
Q 26.515625 48.1875 22.3125 43.546875 
Q 18.109375 38.921875 18.109375 30.90625 
L 18.109375 0 
L 9.078125 0 
L 9.078125 54.6875 
L 18.109375 54.6875 
L 18.109375 46.1875 
Q 21.34375 51.125 25.703125 53.5625 
Q 30.078125 56 35.796875 56 
Q 45.21875 56 50.046875 50.171875 
Q 54.890625 44.34375 54.890625 33.015625 
z
" id="DejaVuSans-110"/>
      <path d="M 9.125 54.6875 
L 61.53125 54.6875 
L 59.765625 45.703125 
L 52.875 45.703125 
L 46.34375 12.109375 
Q 45.65625 8.59375 46.578125 7.03125 
Q 47.46875 5.515625 50.140625 5.515625 
Q 50.875 5.515625 51.953125 5.671875 
Q 53.078125 5.765625 53.421875 5.8125 
L 52.15625 -0.6875 
Q 50.34375 -1.3125 48.484375 -1.609375 
Q 46.578125 -1.90625 44.78125 -1.90625 
Q 38.921875 -1.90625 37.3125 1.265625 
Q 35.6875 4.5 37.359375 13.09375 
L 43.703125 45.703125 
L 23.53125 45.703125 
L 14.65625 0 
L 5.46875 0 
L 14.359375 45.703125 
L 7.375 45.703125 
z
" id="DejaVuSans-Oblique-960"/>
      <path d="M 10.6875 40.921875 
L 21 40.921875 
L 21 28.515625 
L 10.6875 28.515625 
z
" id="DejaVuSans-8901"/>
      <path d="M 46 62.703125 
L 46 35.5 
L 73.1875 35.5 
L 73.1875 27.203125 
L 46 27.203125 
L 46 0 
L 37.796875 0 
L 37.796875 27.203125 
L 10.59375 27.203125 
L 10.59375 35.5 
L 37.796875 35.5 
L 37.796875 62.703125 
z
" id="DejaVuSans-43"/>
     </defs>
     <use transform="translate(0 0.640625)" xlink:href="#DejaVuSans-102"/>
     <use transform="translate(35.205078 0.640625)" xlink:href="#DejaVuSans-40"/>
     <use transform="translate(74.21875 0.640625)" xlink:href="#DejaVuSans-Oblique-120"/>
     <use transform="translate(133.398438 0.640625)" xlink:href="#DejaVuSans-41"/>
     <use transform="translate(172.412109 0.640625)" xlink:href="#DejaVuSans-8796"/>
     <use transform="translate(256.201172 0.640625)" xlink:href="#DejaVuSans-Oblique-120"/>
     <use transform="translate(315.380859 0.640625)" xlink:href="#DejaVuSans-115"/>
     <use transform="translate(367.480469 0.640625)" xlink:href="#DejaVuSans-105"/>
     <use transform="translate(395.263672 0.640625)" xlink:href="#DejaVuSans-110"/>
     <use transform="translate(458.642578 0.640625)" xlink:href="#DejaVuSans-40"/>
     <use transform="translate(497.65625 0.640625)" xlink:href="#DejaVuSans-49"/>
     <use transform="translate(561.279297 0.640625)" xlink:href="#DejaVuSans-48"/>
     <use transform="translate(624.902344 0.640625)" xlink:href="#DejaVuSans-Oblique-960"/>
     <use transform="translate(704.589844 0.640625)" xlink:href="#DejaVuSans-8901"/>
     <use transform="translate(755.859375 0.640625)" xlink:href="#DejaVuSans-Oblique-120"/>
     <use transform="translate(815.039062 0.640625)" xlink:href="#DejaVuSans-41"/>
     <use transform="translate(873.535156 0.640625)" xlink:href="#DejaVuSans-43"/>
     <use transform="translate(976.806641 0.640625)" xlink:href="#DejaVuSans-50"/>
     <use transform="translate(1040.429688 0.640625)" xlink:href="#DejaVuSans-46"/>
     <use transform="translate(1072.216797 0.640625)" xlink:href="#DejaVuSans-48"/>
    </g>
   </g>
  </g>
 </g>
 <defs>
  <clipPath id="pe653c823d6">
   <rect height="299.9304" width="534.006" x="86.13" y="46.7424"/>
  </clipPath>
 </defs>
</svg>
