<?xml version="1.0" encoding="utf-8" standalone="no"?>
<!DOCTYPE svg PUBLIC "-//W3C//DTD SVG 1.1//EN"
  "http://www.w3.org/Graphics/SVG/1.1/DTD/svg11.dtd">
<!-- Created with matplotlib (https://matplotlib.org/) -->
<svg height="460.8pt" version="1.1" viewBox="0 0 806.4 460.8" width="806.4pt" xmlns="http://www.w3.org/2000/svg" xmlns:xlink="http://www.w3.org/1999/xlink">
 <metadata>
  <rdf:RDF xmlns:cc="http://creativecommons.org/ns#" xmlns:dc="http://purl.org/dc/elements/1.1/" xmlns:rdf="http://www.w3.org/1999/02/22-rdf-syntax-ns#">
   <cc:Work>
    <dc:type rdf:resource="http://purl.org/dc/dcmitype/StillImage"/>
    <dc:date>2020-11-26T19:01:28.944145</dc:date>
    <dc:format>image/svg+xml</dc:format>
    <dc:creator>
     <cc:Agent>
      <dc:title>Matplotlib v3.3.2, https://matplotlib.org/</dc:title>
     </cc:Agent>
    </dc:creator>
   </cc:Work>
  </rdf:RDF>
 </metadata>
 <defs>
  <style type="text/css">*{stroke-linecap:butt;stroke-linejoin:round;}</style>
 </defs>
 <g id="figure_1">
  <g id="patch_1">
   <path d="M 0 460.8 
L 806.4 460.8 
L 806.4 0 
L 0 0 
z
" style="fill:#ffffff;"/>
  </g>
  <g id="axes_1">
   <g id="patch_2">
    <path d="M 100.8 410.112 
L 725.76 410.112 
L 725.76 55.296 
L 100.8 55.296 
z
" style="fill:#ffffff;"/>
   </g>
   <g id="PathCollection_1">
    <defs>
     <path d="M 0 1.414214 
C 0.375054 1.414214 0.734797 1.265203 1 1 
C 1.265203 0.734797 1.414214 0.375054 1.414214 0 
C 1.414214 -0.375054 1.265203 -0.734797 1 -1 
C 0.734797 -1.265203 0.375054 -1.414214 0 -1.414214 
C -0.375054 -1.414214 -0.734797 -1.265203 -1 -1 
C -1.265203 -0.734797 -1.414214 -0.375054 -1.414214 0 
C -1.414214 0.375054 -1.265203 0.734797 -1 1 
C -0.734797 1.265203 -0.375054 1.414214 0 1.414214 
z
" id="mcbd5dbfa05" style="stroke:#ff0000;stroke-opacity:0.4;"/>
    </defs>
    <g clip-path="url(#paba8eadad9)">
     <use style="fill:#ff0000;fill-opacity:0.4;stroke:#ff0000;stroke-opacity:0.4;" x="363.881524" xlink:href="#mcbd5dbfa05" y="209.450268"/>
     <use style="fill:#ff0000;fill-opacity:0.4;stroke:#ff0000;stroke-opacity:0.4;" x="594.774623" xlink:href="#mcbd5dbfa05" y="108.19326"/>
     <use style="fill:#ff0000;fill-opacity:0.4;stroke:#ff0000;stroke-opacity:0.4;" x="629.360023" xlink:href="#mcbd5dbfa05" y="95.933882"/>
     <use style="fill:#ff0000;fill-opacity:0.4;stroke:#ff0000;stroke-opacity:0.4;" x="629.498781" xlink:href="#mcbd5dbfa05" y="94.928669"/>
     <use style="fill:#ff0000;fill-opacity:0.4;stroke:#ff0000;stroke-opacity:0.4;" x="629.498781" xlink:href="#mcbd5dbfa05" y="94.928669"/>
     <use style="fill:#ff0000;fill-opacity:0.4;stroke:#ff0000;stroke-opacity:0.4;" x="629.498781" xlink:href="#mcbd5dbfa05" y="94.928669"/>
     <use style="fill:#ff0000;fill-opacity:0.4;stroke:#ff0000;stroke-opacity:0.4;" x="630.608844" xlink:href="#mcbd5dbfa05" y="89.445126"/>
     <use style="fill:#ff0000;fill-opacity:0.4;stroke:#ff0000;stroke-opacity:0.4;" x="630.608844" xlink:href="#mcbd5dbfa05" y="89.445126"/>
     <use style="fill:#ff0000;fill-opacity:0.4;stroke:#ff0000;stroke-opacity:0.4;" x="630.886359" xlink:href="#mcbd5dbfa05" y="88.800169"/>
     <use style="fill:#ff0000;fill-opacity:0.4;stroke:#ff0000;stroke-opacity:0.4;" x="630.886359" xlink:href="#mcbd5dbfa05" y="88.800169"/>
     <use style="fill:#ff0000;fill-opacity:0.4;stroke:#ff0000;stroke-opacity:0.4;" x="666.408375" xlink:href="#mcbd5dbfa05" y="88.199237"/>
     <use style="fill:#ff0000;fill-opacity:0.4;stroke:#ff0000;stroke-opacity:0.4;" x="666.443064" xlink:href="#mcbd5dbfa05" y="87.797194"/>
     <use style="fill:#ff0000;fill-opacity:0.4;stroke:#ff0000;stroke-opacity:0.4;" x="666.443064" xlink:href="#mcbd5dbfa05" y="87.797194"/>
     <use style="fill:#ff0000;fill-opacity:0.4;stroke:#ff0000;stroke-opacity:0.4;" x="666.443064" xlink:href="#mcbd5dbfa05" y="87.797194"/>
     <use style="fill:#ff0000;fill-opacity:0.4;stroke:#ff0000;stroke-opacity:0.4;" x="666.443064" xlink:href="#mcbd5dbfa05" y="87.797194"/>
     <use style="fill:#ff0000;fill-opacity:0.4;stroke:#ff0000;stroke-opacity:0.4;" x="666.443064" xlink:href="#mcbd5dbfa05" y="87.797194"/>
     <use style="fill:#ff0000;fill-opacity:0.4;stroke:#ff0000;stroke-opacity:0.4;" x="666.443064" xlink:href="#mcbd5dbfa05" y="87.797194"/>
     <use style="fill:#ff0000;fill-opacity:0.4;stroke:#ff0000;stroke-opacity:0.4;" x="666.460409" xlink:href="#mcbd5dbfa05" y="87.597889"/>
     <use style="fill:#ff0000;fill-opacity:0.4;stroke:#ff0000;stroke-opacity:0.4;" x="670.883316" xlink:href="#mcbd5dbfa05" y="77.302068"/>
     <use style="fill:#ff0000;fill-opacity:0.4;stroke:#ff0000;stroke-opacity:0.4;" x="668.66319" xlink:href="#mcbd5dbfa05" y="72.098964"/>
     <use style="fill:#ff0000;fill-opacity:0.4;stroke:#ff0000;stroke-opacity:0.4;" x="668.66319" xlink:href="#mcbd5dbfa05" y="72.098964"/>
     <use style="fill:#ff0000;fill-opacity:0.4;stroke:#ff0000;stroke-opacity:0.4;" x="668.66319" xlink:href="#mcbd5dbfa05" y="72.098964"/>
     <use style="fill:#ff0000;fill-opacity:0.4;stroke:#ff0000;stroke-opacity:0.4;" x="668.66319" xlink:href="#mcbd5dbfa05" y="72.098964"/>
     <use style="fill:#ff0000;fill-opacity:0.4;stroke:#ff0000;stroke-opacity:0.4;" x="668.66319" xlink:href="#mcbd5dbfa05" y="72.098964"/>
     <use style="fill:#ff0000;fill-opacity:0.4;stroke:#ff0000;stroke-opacity:0.4;" x="668.66319" xlink:href="#mcbd5dbfa05" y="72.098964"/>
     <use style="fill:#ff0000;fill-opacity:0.4;stroke:#ff0000;stroke-opacity:0.4;" x="668.66319" xlink:href="#mcbd5dbfa05" y="72.098964"/>
     <use style="fill:#ff0000;fill-opacity:0.4;stroke:#ff0000;stroke-opacity:0.4;" x="668.66319" xlink:href="#mcbd5dbfa05" y="72.098964"/>
     <use style="fill:#ff0000;fill-opacity:0.4;stroke:#ff0000;stroke-opacity:0.4;" x="668.66319" xlink:href="#mcbd5dbfa05" y="72.098964"/>
     <use style="fill:#ff0000;fill-opacity:0.4;stroke:#ff0000;stroke-opacity:0.4;" x="668.680535" xlink:href="#mcbd5dbfa05" y="72.057318"/>
    </g>
   </g>
   <g id="matplotlib.axis_1">
    <g id="xtick_1">
     <g id="line2d_1">
      <defs>
       <path d="M 0 0 
L 0 3.5 
" id="m9503599b33" style="stroke:#000000;stroke-width:0.8;"/>
      </defs>
      <g>
       <use style="stroke:#000000;stroke-width:0.8;" x="129.207273" xlink:href="#m9503599b33" y="410.112"/>
      </g>
     </g>
     <g id="text_1">
      <!-- −1.0 -->
      <g transform="translate(117.065866 424.710438)scale(0.1 -0.1)">
       <defs>
        <path d="M 10.59375 35.5 
L 73.1875 35.5 
L 73.1875 27.203125 
L 10.59375 27.203125 
z
" id="DejaVuSans-8722"/>
        <path d="M 12.40625 8.296875 
L 28.515625 8.296875 
L 28.515625 63.921875 
L 10.984375 60.40625 
L 10.984375 69.390625 
L 28.421875 72.90625 
L 38.28125 72.90625 
L 38.28125 8.296875 
L 54.390625 8.296875 
L 54.390625 0 
L 12.40625 0 
z
" id="DejaVuSans-49"/>
        <path d="M 10.6875 12.40625 
L 21 12.40625 
L 21 0 
L 10.6875 0 
z
" id="DejaVuSans-46"/>
        <path d="M 31.78125 66.40625 
Q 24.171875 66.40625 20.328125 58.90625 
Q 16.5 51.421875 16.5 36.375 
Q 16.5 21.390625 20.328125 13.890625 
Q 24.171875 6.390625 31.78125 6.390625 
Q 39.453125 6.390625 43.28125 13.890625 
Q 47.125 21.390625 47.125 36.375 
Q 47.125 51.421875 43.28125 58.90625 
Q 39.453125 66.40625 31.78125 66.40625 
z
M 31.78125 74.21875 
Q 44.046875 74.21875 50.515625 64.515625 
Q 56.984375 54.828125 56.984375 36.375 
Q 56.984375 17.96875 50.515625 8.265625 
Q 44.046875 -1.421875 31.78125 -1.421875 
Q 19.53125 -1.421875 13.0625 8.265625 
Q 6.59375 17.96875 6.59375 36.375 
Q 6.59375 54.828125 13.0625 64.515625 
Q 19.53125 74.21875 31.78125 74.21875 
z
" id="DejaVuSans-48"/>
       </defs>
       <use xlink:href="#DejaVuSans-8722"/>
       <use x="83.789062" xlink:href="#DejaVuSans-49"/>
       <use x="147.412109" xlink:href="#DejaVuSans-46"/>
       <use x="179.199219" xlink:href="#DejaVuSans-48"/>
      </g>
     </g>
    </g>
    <g id="xtick_2">
     <g id="line2d_2">
      <g>
       <use style="stroke:#000000;stroke-width:0.8;" x="223.929756" xlink:href="#m9503599b33" y="410.112"/>
      </g>
     </g>
     <g id="text_2">
      <!-- −0.5 -->
      <g transform="translate(211.78835 424.710438)scale(0.1 -0.1)">
       <defs>
        <path d="M 10.796875 72.90625 
L 49.515625 72.90625 
L 49.515625 64.59375 
L 19.828125 64.59375 
L 19.828125 46.734375 
Q 21.96875 47.46875 24.109375 47.828125 
Q 26.265625 48.1875 28.421875 48.1875 
Q 40.625 48.1875 47.75 41.5 
Q 54.890625 34.8125 54.890625 23.390625 
Q 54.890625 11.625 47.5625 5.09375 
Q 40.234375 -1.421875 26.90625 -1.421875 
Q 22.3125 -1.421875 17.546875 -0.640625 
Q 12.796875 0.140625 7.71875 1.703125 
L 7.71875 11.625 
Q 12.109375 9.234375 16.796875 8.0625 
Q 21.484375 6.890625 26.703125 6.890625 
Q 35.15625 6.890625 40.078125 11.328125 
Q 45.015625 15.765625 45.015625 23.390625 
Q 45.015625 31 40.078125 35.4375 
Q 35.15625 39.890625 26.703125 39.890625 
Q 22.75 39.890625 18.8125 39.015625 
Q 14.890625 38.140625 10.796875 36.28125 
z
" id="DejaVuSans-53"/>
       </defs>
       <use xlink:href="#DejaVuSans-8722"/>
       <use x="83.789062" xlink:href="#DejaVuSans-48"/>
       <use x="147.412109" xlink:href="#DejaVuSans-46"/>
       <use x="179.199219" xlink:href="#DejaVuSans-53"/>
      </g>
     </g>
    </g>
    <g id="xtick_3">
     <g id="line2d_3">
      <g>
       <use style="stroke:#000000;stroke-width:0.8;" x="318.652239" xlink:href="#m9503599b33" y="410.112"/>
      </g>
     </g>
     <g id="text_3">
      <!-- 0.0 -->
      <g transform="translate(310.700677 424.710438)scale(0.1 -0.1)">
       <use xlink:href="#DejaVuSans-48"/>
       <use x="63.623047" xlink:href="#DejaVuSans-46"/>
       <use x="95.410156" xlink:href="#DejaVuSans-48"/>
      </g>
     </g>
    </g>
    <g id="xtick_4">
     <g id="line2d_4">
      <g>
       <use style="stroke:#000000;stroke-width:0.8;" x="413.374722" xlink:href="#m9503599b33" y="410.112"/>
      </g>
     </g>
     <g id="text_4">
      <!-- 0.5 -->
      <g transform="translate(405.42316 424.710438)scale(0.1 -0.1)">
       <use xlink:href="#DejaVuSans-48"/>
       <use x="63.623047" xlink:href="#DejaVuSans-46"/>
       <use x="95.410156" xlink:href="#DejaVuSans-53"/>
      </g>
     </g>
    </g>
    <g id="xtick_5">
     <g id="line2d_5">
      <g>
       <use style="stroke:#000000;stroke-width:0.8;" x="508.097206" xlink:href="#m9503599b33" y="410.112"/>
      </g>
     </g>
     <g id="text_5">
      <!-- 1.0 -->
      <g transform="translate(500.145643 424.710438)scale(0.1 -0.1)">
       <use xlink:href="#DejaVuSans-49"/>
       <use x="63.623047" xlink:href="#DejaVuSans-46"/>
       <use x="95.410156" xlink:href="#DejaVuSans-48"/>
      </g>
     </g>
    </g>
    <g id="xtick_6">
     <g id="line2d_6">
      <g>
       <use style="stroke:#000000;stroke-width:0.8;" x="602.819689" xlink:href="#m9503599b33" y="410.112"/>
      </g>
     </g>
     <g id="text_6">
      <!-- 1.5 -->
      <g transform="translate(594.868126 424.710438)scale(0.1 -0.1)">
       <use xlink:href="#DejaVuSans-49"/>
       <use x="63.623047" xlink:href="#DejaVuSans-46"/>
       <use x="95.410156" xlink:href="#DejaVuSans-53"/>
      </g>
     </g>
    </g>
    <g id="xtick_7">
     <g id="line2d_7">
      <g>
       <use style="stroke:#000000;stroke-width:0.8;" x="697.542172" xlink:href="#m9503599b33" y="410.112"/>
      </g>
     </g>
     <g id="text_7">
      <!-- 2.0 -->
      <g transform="translate(689.59061 424.710438)scale(0.1 -0.1)">
       <defs>
        <path d="M 19.1875 8.296875 
L 53.609375 8.296875 
L 53.609375 0 
L 7.328125 0 
L 7.328125 8.296875 
Q 12.9375 14.109375 22.625 23.890625 
Q 32.328125 33.6875 34.8125 36.53125 
Q 39.546875 41.84375 41.421875 45.53125 
Q 43.3125 49.21875 43.3125 52.78125 
Q 43.3125 58.59375 39.234375 62.25 
Q 35.15625 65.921875 28.609375 65.921875 
Q 23.96875 65.921875 18.8125 64.3125 
Q 13.671875 62.703125 7.8125 59.421875 
L 7.8125 69.390625 
Q 13.765625 71.78125 18.9375 73 
Q 24.125 74.21875 28.421875 74.21875 
Q 39.75 74.21875 46.484375 68.546875 
Q 53.21875 62.890625 53.21875 53.421875 
Q 53.21875 48.921875 51.53125 44.890625 
Q 49.859375 40.875 45.40625 35.40625 
Q 44.1875 33.984375 37.640625 27.21875 
Q 31.109375 20.453125 19.1875 8.296875 
z
" id="DejaVuSans-50"/>
       </defs>
       <use xlink:href="#DejaVuSans-50"/>
       <use x="63.623047" xlink:href="#DejaVuSans-46"/>
       <use x="95.410156" xlink:href="#DejaVuSans-48"/>
      </g>
     </g>
    </g>
    <g id="text_8">
     <!-- x -->
     <g transform="translate(410.320625 438.388563)scale(0.1 -0.1)">
      <defs>
       <path d="M 54.890625 54.6875 
L 35.109375 28.078125 
L 55.90625 0 
L 45.3125 0 
L 29.390625 21.484375 
L 13.484375 0 
L 2.875 0 
L 24.125 28.609375 
L 4.6875 54.6875 
L 15.28125 54.6875 
L 29.78125 35.203125 
L 44.28125 54.6875 
z
" id="DejaVuSans-120"/>
      </defs>
      <use xlink:href="#DejaVuSans-120"/>
     </g>
    </g>
   </g>
   <g id="matplotlib.axis_2">
    <g id="ytick_1">
     <g id="line2d_8">
      <defs>
       <path d="M 0 0 
L -3.5 0 
" id="m92ffe4e007" style="stroke:#000000;stroke-width:0.8;"/>
      </defs>
      <g>
       <use style="stroke:#000000;stroke-width:0.8;" x="100.8" xlink:href="#m92ffe4e007" y="398.224906"/>
      </g>
     </g>
     <g id="text_9">
      <!-- 0.0 -->
      <g transform="translate(77.896875 402.024125)scale(0.1 -0.1)">
       <use xlink:href="#DejaVuSans-48"/>
       <use x="63.623047" xlink:href="#DejaVuSans-46"/>
       <use x="95.410156" xlink:href="#DejaVuSans-48"/>
      </g>
     </g>
    </g>
    <g id="ytick_2">
     <g id="line2d_9">
      <g>
       <use style="stroke:#000000;stroke-width:0.8;" x="100.8" xlink:href="#m92ffe4e007" y="355.784185"/>
      </g>
     </g>
     <g id="text_10">
      <!-- 0.5 -->
      <g transform="translate(77.896875 359.583404)scale(0.1 -0.1)">
       <use xlink:href="#DejaVuSans-48"/>
       <use x="63.623047" xlink:href="#DejaVuSans-46"/>
       <use x="95.410156" xlink:href="#DejaVuSans-53"/>
      </g>
     </g>
    </g>
    <g id="ytick_3">
     <g id="line2d_10">
      <g>
       <use style="stroke:#000000;stroke-width:0.8;" x="100.8" xlink:href="#m92ffe4e007" y="313.343464"/>
      </g>
     </g>
     <g id="text_11">
      <!-- 1.0 -->
      <g transform="translate(77.896875 317.142683)scale(0.1 -0.1)">
       <use xlink:href="#DejaVuSans-49"/>
       <use x="63.623047" xlink:href="#DejaVuSans-46"/>
       <use x="95.410156" xlink:href="#DejaVuSans-48"/>
      </g>
     </g>
    </g>
    <g id="ytick_4">
     <g id="line2d_11">
      <g>
       <use style="stroke:#000000;stroke-width:0.8;" x="100.8" xlink:href="#m92ffe4e007" y="270.902743"/>
      </g>
     </g>
     <g id="text_12">
      <!-- 1.5 -->
      <g transform="translate(77.896875 274.701962)scale(0.1 -0.1)">
       <use xlink:href="#DejaVuSans-49"/>
       <use x="63.623047" xlink:href="#DejaVuSans-46"/>
       <use x="95.410156" xlink:href="#DejaVuSans-53"/>
      </g>
     </g>
    </g>
    <g id="ytick_5">
     <g id="line2d_12">
      <g>
       <use style="stroke:#000000;stroke-width:0.8;" x="100.8" xlink:href="#m92ffe4e007" y="228.462022"/>
      </g>
     </g>
     <g id="text_13">
      <!-- 2.0 -->
      <g transform="translate(77.896875 232.261241)scale(0.1 -0.1)">
       <use xlink:href="#DejaVuSans-50"/>
       <use x="63.623047" xlink:href="#DejaVuSans-46"/>
       <use x="95.410156" xlink:href="#DejaVuSans-48"/>
      </g>
     </g>
    </g>
    <g id="ytick_6">
     <g id="line2d_13">
      <g>
       <use style="stroke:#000000;stroke-width:0.8;" x="100.8" xlink:href="#m92ffe4e007" y="186.021301"/>
      </g>
     </g>
     <g id="text_14">
      <!-- 2.5 -->
      <g transform="translate(77.896875 189.82052)scale(0.1 -0.1)">
       <use xlink:href="#DejaVuSans-50"/>
       <use x="63.623047" xlink:href="#DejaVuSans-46"/>
       <use x="95.410156" xlink:href="#DejaVuSans-53"/>
      </g>
     </g>
    </g>
    <g id="ytick_7">
     <g id="line2d_14">
      <g>
       <use style="stroke:#000000;stroke-width:0.8;" x="100.8" xlink:href="#m92ffe4e007" y="143.58058"/>
      </g>
     </g>
     <g id="text_15">
      <!-- 3.0 -->
      <g transform="translate(77.896875 147.379799)scale(0.1 -0.1)">
       <defs>
        <path d="M 40.578125 39.3125 
Q 47.65625 37.796875 51.625 33 
Q 55.609375 28.21875 55.609375 21.1875 
Q 55.609375 10.40625 48.1875 4.484375 
Q 40.765625 -1.421875 27.09375 -1.421875 
Q 22.515625 -1.421875 17.65625 -0.515625 
Q 12.796875 0.390625 7.625 2.203125 
L 7.625 11.71875 
Q 11.71875 9.328125 16.59375 8.109375 
Q 21.484375 6.890625 26.8125 6.890625 
Q 36.078125 6.890625 40.9375 10.546875 
Q 45.796875 14.203125 45.796875 21.1875 
Q 45.796875 27.640625 41.28125 31.265625 
Q 36.765625 34.90625 28.71875 34.90625 
L 20.21875 34.90625 
L 20.21875 43.015625 
L 29.109375 43.015625 
Q 36.375 43.015625 40.234375 45.921875 
Q 44.09375 48.828125 44.09375 54.296875 
Q 44.09375 59.90625 40.109375 62.90625 
Q 36.140625 65.921875 28.71875 65.921875 
Q 24.65625 65.921875 20.015625 65.03125 
Q 15.375 64.15625 9.8125 62.3125 
L 9.8125 71.09375 
Q 15.4375 72.65625 20.34375 73.4375 
Q 25.25 74.21875 29.59375 74.21875 
Q 40.828125 74.21875 47.359375 69.109375 
Q 53.90625 64.015625 53.90625 55.328125 
Q 53.90625 49.265625 50.4375 45.09375 
Q 46.96875 40.921875 40.578125 39.3125 
z
" id="DejaVuSans-51"/>
       </defs>
       <use xlink:href="#DejaVuSans-51"/>
       <use x="63.623047" xlink:href="#DejaVuSans-46"/>
       <use x="95.410156" xlink:href="#DejaVuSans-48"/>
      </g>
     </g>
    </g>
    <g id="ytick_8">
     <g id="line2d_15">
      <g>
       <use style="stroke:#000000;stroke-width:0.8;" x="100.8" xlink:href="#m92ffe4e007" y="101.139859"/>
      </g>
     </g>
     <g id="text_16">
      <!-- 3.5 -->
      <g transform="translate(77.896875 104.939078)scale(0.1 -0.1)">
       <use xlink:href="#DejaVuSans-51"/>
       <use x="63.623047" xlink:href="#DejaVuSans-46"/>
       <use x="95.410156" xlink:href="#DejaVuSans-53"/>
      </g>
     </g>
    </g>
    <g id="ytick_9">
     <g id="line2d_16">
      <g>
       <use style="stroke:#000000;stroke-width:0.8;" x="100.8" xlink:href="#m92ffe4e007" y="58.699138"/>
      </g>
     </g>
     <g id="text_17">
      <!-- 4.0 -->
      <g transform="translate(77.896875 62.498357)scale(0.1 -0.1)">
       <defs>
        <path d="M 37.796875 64.3125 
L 12.890625 25.390625 
L 37.796875 25.390625 
z
M 35.203125 72.90625 
L 47.609375 72.90625 
L 47.609375 25.390625 
L 58.015625 25.390625 
L 58.015625 17.1875 
L 47.609375 17.1875 
L 47.609375 0 
L 37.796875 0 
L 37.796875 17.1875 
L 4.890625 17.1875 
L 4.890625 26.703125 
z
" id="DejaVuSans-52"/>
       </defs>
       <use xlink:href="#DejaVuSans-52"/>
       <use x="63.623047" xlink:href="#DejaVuSans-46"/>
       <use x="95.410156" xlink:href="#DejaVuSans-48"/>
      </g>
     </g>
    </g>
    <g id="text_18">
     <!-- y -->
     <g transform="translate(71.817187 235.663375)rotate(-90)scale(0.1 -0.1)">
      <defs>
       <path d="M 32.171875 -5.078125 
Q 28.375 -14.84375 24.75 -17.8125 
Q 21.140625 -20.796875 15.09375 -20.796875 
L 7.90625 -20.796875 
L 7.90625 -13.28125 
L 13.1875 -13.28125 
Q 16.890625 -13.28125 18.9375 -11.515625 
Q 21 -9.765625 23.484375 -3.21875 
L 25.09375 0.875 
L 2.984375 54.6875 
L 12.5 54.6875 
L 29.59375 11.921875 
L 46.6875 54.6875 
L 56.203125 54.6875 
z
" id="DejaVuSans-121"/>
      </defs>
      <use xlink:href="#DejaVuSans-121"/>
     </g>
    </g>
   </g>
   <g id="line2d_17">
    <path clip-path="url(#paba8eadad9)" d="M 129.207273 228.462022 
L 131.670057 261.734271 
L 133.185617 279.393943 
L 134.322287 290.413428 
L 135.269512 297.836425 
L 136.216736 303.480046 
L 136.974516 306.631179 
L 137.542851 308.17135 
L 137.921741 308.800391 
L 138.300631 309.1097 
L 138.679521 309.099392 
L 139.058411 308.770845 
L 139.437301 308.126694 
L 140.005636 306.577522 
L 140.573971 304.345448 
L 141.331751 300.349653 
L 142.278975 293.821752 
L 143.415645 283.980747 
L 144.74176 270.21427 
L 146.446765 249.988203 
L 151.182889 192.313541 
L 152.509004 179.233289 
L 153.645673 170.04449 
L 154.592898 164.047059 
L 155.350678 160.432319 
L 156.108458 157.921779 
L 156.676793 156.781891 
L 157.055683 156.379483 
L 157.434573 156.263558 
L 157.813463 156.433237 
L 158.192353 156.886511 
L 158.760688 158.091025 
L 159.329022 159.911176 
L 160.086802 163.259441 
L 160.844582 167.602189 
L 161.791807 174.308938 
L 162.928477 183.987328 
L 164.444036 199.043443 
L 166.906821 226.326403 
L 169.559051 254.992174 
L 171.07461 268.989057 
L 172.21128 277.679326 
L 173.158505 283.502871 
L 174.10573 287.899978 
L 174.86351 290.328957 
L 175.431845 291.495759 
L 176.000179 292.094088 
L 176.379069 292.17653 
L 176.757959 292.006851 
L 177.136849 291.587059 
L 177.705184 290.495223 
L 178.273519 288.861757 
L 179.031299 285.87457 
L 179.978524 280.922831 
L 180.925749 274.750482 
L 182.251863 264.384305 
L 183.956868 248.905094 
L 189.261327 198.950842 
L 190.587442 189.182809 
L 191.724112 182.452768 
L 192.671337 178.168126 
L 193.429116 175.67237 
L 193.997451 174.364726 
L 194.565786 173.549173 
L 194.944676 173.28043 
L 195.323566 173.23147 
L 195.702456 173.401149 
L 196.081346 173.787458 
L 196.649681 174.766617 
L 197.218016 176.213399 
L 197.975796 178.839508 
L 198.92302 183.16799 
L 200.05969 189.727704 
L 201.385805 198.929255 
L 203.09081 212.461839 
L 207.826934 251.005213 
L 209.153049 259.734982 
L 210.289718 265.872123 
L 211.236943 269.887623 
L 211.994723 272.319911 
L 212.752503 274.026734 
L 213.320838 274.820167 
L 213.889173 275.193141 
L 214.268063 275.208619 
L 214.646953 275.03894 
L 215.215288 274.441843 
L 215.783622 273.442634 
L 216.541402 271.50835 
L 217.299182 268.924029 
L 218.246407 264.857403 
L 219.383077 258.909223 
L 220.898637 249.562267 
L 223.171976 233.823809 
L 226.013651 214.402019 
L 227.52921 205.513297 
L 228.66588 199.952407 
L 229.613105 196.186873 
L 230.56033 193.29411 
L 231.31811 191.645033 
L 231.886445 190.807673 
L 232.454779 190.316455 
L 233.023114 190.171318 
L 233.402004 190.265373 
L 233.970339 190.688405 
L 234.538674 191.442209 
L 235.296454 192.942121 
L 236.054234 194.975903 
L 237.001459 198.204188 
L 238.138128 202.953419 
L 239.653688 210.444215 
L 241.927028 223.084277 
L 244.768702 238.691647 
L 246.284262 245.836051 
L 247.420932 250.309632 
L 248.557602 253.870118 
L 249.504826 256.066942 
L 250.262606 257.292679 
L 250.830941 257.894897 
L 251.399276 258.223948 
L 251.967611 258.281332 
L 252.535946 258.071028 
L 253.104281 257.599418 
L 253.862061 256.579462 
L 254.619841 255.137242 
L 255.567065 252.791343 
L 256.703735 249.282279 
L 258.02985 244.427481 
L 260.113745 235.779503 
L 263.523754 221.570802 
L 265.039314 216.23411 
L 266.175984 212.913152 
L 267.312653 210.286188 
L 268.259878 208.676364 
L 269.017658 207.784781 
L 269.775438 207.25062 
L 270.343773 207.083737 
L 270.912108 207.114107 
L 271.480443 207.336972 
L 272.238222 207.922101 
L 272.996002 208.817844 
L 273.943227 210.336508 
L 275.079897 212.6678 
L 276.406012 215.94434 
L 278.300461 221.281689 
L 281.899916 231.54763 
L 283.415475 235.184203 
L 284.74159 237.774396 
L 285.87826 239.47702 
L 286.825485 240.502208 
L 287.583265 241.057718 
L 288.341045 241.37835 
L 289.098824 241.468984 
L 289.856604 241.338542 
L 290.614384 240.999686 
L 291.561609 240.307745 
L 292.698279 239.134368 
L 294.024394 237.389191 
L 295.918843 234.449069 
L 299.707743 228.462022 
L 301.223302 226.51998 
L 302.549417 225.186516 
L 303.686087 224.352092 
L 304.822757 223.814075 
L 305.769982 223.588614 
L 306.906651 223.568934 
L 308.043321 223.792856 
L 309.369436 224.304884 
L 311.074441 225.23294 
L 315.24223 227.643351 
L 316.75779 228.199724 
L 318.083904 228.438058 
L 319.220574 228.438058 
L 320.546689 228.199724 
L 321.872804 227.727483 
L 323.577808 226.853248 
L 328.692822 223.983271 
L 330.018937 223.618399 
L 331.155607 223.552799 
L 332.102832 223.700088 
L 333.050057 224.046016 
L 334.186726 224.732519 
L 335.323396 225.712291 
L 336.649511 227.200576 
L 338.165071 229.284791 
L 340.248965 232.582069 
L 343.280085 237.389191 
L 344.795645 239.353088 
L 345.932314 240.468448 
L 346.879539 241.103116 
L 347.637319 241.391247 
L 348.395099 241.467466 
L 349.152879 241.320016 
L 349.910659 240.940959 
L 350.668439 240.326463 
L 351.615663 239.22843 
L 352.562888 237.774396 
L 353.699558 235.591065 
L 355.025673 232.51498 
L 356.730677 227.926118 
L 362.035137 213.103107 
L 363.171806 210.688991 
L 364.119031 209.08753 
L 365.066256 207.922101 
L 365.824036 207.336972 
L 366.392371 207.114107 
L 366.960706 207.083737 
L 367.529041 207.25062 
L 368.097375 207.617697 
L 368.855155 208.420094 
L 369.612935 209.577202 
L 370.56016 211.508023 
L 371.507385 213.947205 
L 372.644055 217.479442 
L 374.159614 223.036742 
L 376.243509 231.696116 
L 379.464073 245.161866 
L 380.979633 250.527887 
L 382.116303 253.798045 
L 383.063528 255.909219 
L 383.821308 257.14404 
L 384.579088 257.942476 
L 385.147422 258.240707 
L 385.715757 258.273115 
L 386.284092 258.03491 
L 386.852427 257.52376 
L 387.420762 256.739844 
L 388.178542 255.275418 
L 388.936322 253.344805 
L 389.883547 250.309632 
L 391.020216 245.836051 
L 392.346331 239.646769 
L 394.240781 229.525832 
L 398.598015 205.629515 
L 399.92413 199.689208 
L 401.0608 195.563008 
L 402.008024 192.942121 
L 402.765804 191.442209 
L 403.334139 190.688405 
L 403.902474 190.265373 
L 404.470809 190.181377 
L 404.849699 190.316455 
L 405.418034 190.807673 
L 405.986369 191.645033 
L 406.744149 193.29411 
L 407.501929 195.536444 
L 408.449153 199.132842 
L 409.585823 204.513833 
L 410.911938 212.045016 
L 412.616943 223.185343 
L 417.731957 257.819636 
L 419.058071 264.857403 
L 420.194741 269.628443 
L 421.141966 272.559534 
L 421.899746 274.152866 
L 422.468081 274.885266 
L 423.036416 275.208619 
L 423.415306 275.193141 
L 423.794196 274.99123 
L 424.362531 274.337844 
L 424.930865 273.265343 
L 425.688645 271.192926 
L 426.446425 268.40798 
L 427.39365 263.978793 
L 428.53032 257.399417 
L 429.856435 248.250077 
L 431.561439 234.802548 
L 436.487008 194.808421 
L 437.813123 186.275309 
L 438.949793 180.437024 
L 439.897018 176.796711 
L 440.654798 174.766617 
L 441.223133 173.787458 
L 441.791467 173.289085 
L 442.170357 173.228528 
L 442.549247 173.387291 
L 442.928137 173.766081 
L 443.496472 174.746199 
L 444.064807 176.216473 
L 444.822587 178.923494 
L 445.580367 182.452768 
L 446.527592 187.948358 
L 447.664261 195.971207 
L 448.990376 206.964125 
L 450.884826 224.741857 
L 454.86317 262.765834 
L 456.189285 273.383931 
L 457.325955 280.922831 
L 458.27318 285.87457 
L 459.030959 288.861757 
L 459.788739 290.920148 
L 460.357074 291.828055 
L 460.735964 292.123104 
L 461.114854 292.166911 
L 461.493744 291.957965 
L 461.872634 291.495759 
L 462.440969 290.328957 
L 463.009304 288.599648 
L 463.767084 285.438768 
L 464.524863 281.338329 
L 465.472088 274.977711 
L 466.608758 265.723882 
L 467.934873 253.084613 
L 469.829323 232.715162 
L 473.618222 191.25795 
L 475.133782 177.352522 
L 476.270451 168.834436 
L 477.217676 163.259441 
L 477.975456 159.911176 
L 478.733236 157.620255 
L 479.301571 156.624594 
L 479.680461 156.312796 
L 480.059351 156.285739 
L 480.438241 156.544866 
L 480.817131 157.09049 
L 481.385465 158.443976 
L 481.9538 160.432319 
L 482.71158 164.047059 
L 483.46936 168.718662 
L 484.416585 175.944309 
L 485.553255 186.429118 
L 487.068814 202.900993 
L 489.152709 228.462022 
L 492.373274 268.083913 
L 493.888833 283.980747 
L 495.025503 293.821752 
L 495.972728 300.349653 
L 496.730508 304.345448 
L 497.488288 307.170815 
L 498.056623 308.488006 
L 498.435512 308.974763 
L 498.814402 309.144442 
L 499.193292 308.995035 
L 499.572182 308.525794 
L 499.951072 307.737244 
L 500.519407 305.959989 
L 501.087742 303.480046 
L 501.845522 299.112033 
L 502.792747 292.033034 
L 503.929416 281.377169 
L 505.255531 266.41936 
L 506.960536 244.271787 
L 512.07555 175.345074 
L 513.401665 161.228483 
L 514.538335 151.550854 
L 515.485559 145.484036 
L 516.243339 142.0628 
L 516.811674 140.376138 
L 517.190564 139.681805 
L 517.569454 139.336508 
L 517.948344 139.342949 
L 518.327234 139.702441 
L 518.706124 140.414898 
L 519.274459 142.141754 
L 519.842794 144.648166 
L 520.600574 149.170624 
L 521.547798 156.630591 
L 522.495023 165.94067 
L 523.631693 179.250767 
L 525.147253 199.871531 
L 527.610037 237.272841 
L 530.262267 276.725547 
L 531.777827 295.984796 
L 532.914496 307.862511 
L 533.861721 315.710258 
L 534.619501 320.490857 
L 535.377281 323.846406 
L 535.945616 325.388953 
L 536.324506 325.942674 
L 536.703396 326.112353 
L 537.082286 325.895982 
L 537.461176 325.293076 
L 537.840065 324.304688 
L 538.4084 322.105398 
L 538.976735 319.060113 
L 539.734515 313.724238 
L 540.68174 305.113489 
L 541.81841 292.198263 
L 543.144525 274.126433 
L 544.849529 247.452826 
L 549.964543 164.940188 
L 551.290658 148.148028 
L 552.427328 136.674419 
L 553.374553 129.511373 
L 554.132333 125.495355 
L 554.700667 123.533713 
L 555.079557 122.739015 
L 555.458447 122.36022 
L 555.837337 122.400159 
L 556.216227 122.860015 
L 556.595117 123.739306 
L 557.163452 125.839531 
L 557.731787 128.864012 
L 558.489567 134.294189 
L 559.436792 143.216692 
L 560.384016 154.319601 
L 561.520686 170.154417 
L 563.036246 194.62557 
L 565.499031 238.87045 
L 568.15126 285.367181 
L 569.66682 307.988844 
L 570.80349 321.903269 
L 571.750714 331.070863 
L 572.508494 336.636267 
L 573.266274 340.521998 
L 573.834609 342.2899 
L 574.213499 342.910586 
L 574.592389 343.080265 
L 574.971279 342.796929 
L 575.350169 342.060358 
L 575.729059 340.872132 
L 576.297394 338.250808 
L 577.055174 333.221348 
L 577.812953 326.503534 
L 578.760178 315.881631 
L 579.896848 300.203717 
L 581.222963 278.553116 
L 583.117412 243.31332 
L 587.285202 163.968899 
L 588.611316 142.933175 
L 589.747986 128.000396 
L 590.695211 118.172878 
L 591.452991 112.215072 
L 592.210771 108.06425 
L 592.779106 106.18367 
L 593.157996 105.529502 
L 593.536886 105.359823 
L 593.915776 105.676642 
L 594.294665 106.480045 
L 594.673555 107.76819 
L 595.24189 110.600531 
L 595.99967 116.022394 
L 596.75745 123.253733 
L 597.704675 134.675362 
L 598.841345 151.517883 
L 600.167459 174.756852 
L 602.061909 212.546878 
L 606.229698 297.50332 
L 607.555813 319.992893 
L 608.692483 335.944027 
L 609.639708 346.431468 
L 610.397488 352.781677 
L 611.155268 357.19759 
L 611.723602 359.190847 
L 612.102492 359.878498 
L 612.481382 360.048177 
L 612.670827 359.938069 
L 613.049717 359.327667 
L 613.428607 358.198125 
L 613.996942 355.537847 
L 614.565277 351.736263 
L 615.323057 344.944508 
L 616.270282 333.828202 
L 617.217506 320.036047 
L 618.354176 300.414152 
L 619.869736 270.167417 
L 622.332521 215.657179 
L 624.795305 162.380636 
L 626.310865 134.098941 
L 627.447535 116.52906 
L 628.394759 104.807105 
L 629.152539 97.566046 
L 629.910319 92.360466 
L 630.478654 89.848862 
L 630.857544 88.853436 
L 631.236434 88.407643 
L 631.425879 88.391912 
L 631.615324 88.51458 
L 631.994214 89.175165 
L 632.373104 90.388123 
L 632.941439 93.235086 
L 633.509774 97.295704 
L 634.267553 104.541319 
L 635.214778 116.388893 
L 636.162003 131.077463 
L 637.298673 151.961717 
L 638.814233 184.133646 
L 641.466462 246.589967 
L 643.929247 302.650449 
L 645.444806 331.996942 
L 646.581476 349.984786 
L 647.528701 361.792073 
L 648.286481 368.927087 
L 649.044261 373.873181 
L 649.612596 376.091794 
L 649.991486 376.846409 
L 650.180931 377.004546 
L 650.370376 377.016088 
L 650.559821 376.880859 
L 650.93871 376.170092 
L 651.3176 374.873717 
L 651.885935 371.840069 
L 652.45427 367.520417 
L 653.21205 359.820942 
L 654.159275 347.242101 
L 655.1065 331.657116 
L 656.24317 309.510502 
L 657.758729 275.413379 
L 660.410959 209.27023 
L 662.873743 149.952778 
L 664.389303 118.925078 
L 665.525973 99.918879 
L 666.473198 87.451668 
L 667.230978 79.924253 
L 667.988757 74.713067 
L 668.557092 72.381776 
L 668.935982 71.593679 
L 669.125427 71.431354 
L 669.314872 71.424 
L 669.504317 71.571791 
L 669.883207 72.33274 
L 670.262097 73.712531 
L 670.830432 76.932863 
L 671.398767 81.51155 
L 672.156547 89.664884 
L 673.103772 102.974993 
L 674.050996 119.456394 
L 675.377111 147.101039 
L 676.892671 183.680935 
L 680.30268 273.669371 
L 682.19713 320.018371 
L 683.523245 347.635021 
L 684.659915 366.924157 
L 685.607139 379.354973 
L 686.364919 386.675092 
L 686.933254 390.548773 
L 687.501589 392.992741 
L 687.880479 393.814321 
L 688.069924 393.980834 
L 688.259369 393.984 
L 688.448814 393.823648 
L 688.827704 393.012517 
L 689.206594 391.549309 
L 689.774929 388.142292 
L 690.343264 383.304571 
L 691.101043 374.697377 
L 692.048268 360.656 
L 692.995493 343.278185 
L 694.321608 314.143822 
L 696.026613 270.511461 
L 697.352727 233.791737 
L 697.352727 233.791737 
" style="fill:none;stroke:#1f77b4;stroke-linecap:square;stroke-width:1.5;"/>
   </g>
   <g id="patch_3">
    <path d="M 100.8 410.112 
L 100.8 55.296 
" style="fill:none;stroke:#000000;stroke-linecap:square;stroke-linejoin:miter;stroke-width:0.8;"/>
   </g>
   <g id="patch_4">
    <path d="M 725.76 410.112 
L 725.76 55.296 
" style="fill:none;stroke:#000000;stroke-linecap:square;stroke-linejoin:miter;stroke-width:0.8;"/>
   </g>
   <g id="patch_5">
    <path d="M 100.8 410.112 
L 725.76 410.112 
" style="fill:none;stroke:#000000;stroke-linecap:square;stroke-linejoin:miter;stroke-width:0.8;"/>
   </g>
   <g id="patch_6">
    <path d="M 100.8 55.296 
L 725.76 55.296 
" style="fill:none;stroke:#000000;stroke-linecap:square;stroke-linejoin:miter;stroke-width:0.8;"/>
   </g>
   <g id="text_19">
    <!-- $\mathrm{f}(x)\triangleq x\sin{\left({10\pi\cdot x}\right)}+2.0$ -->
    <g transform="translate(345.12 49.296)scale(0.12 -0.12)">
     <defs>
      <path d="M 37.109375 75.984375 
L 37.109375 68.5 
L 28.515625 68.5 
Q 23.6875 68.5 21.796875 66.546875 
Q 19.921875 64.59375 19.921875 59.515625 
L 19.921875 54.6875 
L 34.71875 54.6875 
L 34.71875 47.703125 
L 19.921875 47.703125 
L 19.921875 0 
L 10.890625 0 
L 10.890625 47.703125 
L 2.296875 47.703125 
L 2.296875 54.6875 
L 10.890625 54.6875 
L 10.890625 58.5 
Q 10.890625 67.625 15.140625 71.796875 
Q 19.390625 75.984375 28.609375 75.984375 
z
" id="DejaVuSans-102"/>
      <path d="M 31 75.875 
Q 24.46875 64.65625 21.28125 53.65625 
Q 18.109375 42.671875 18.109375 31.390625 
Q 18.109375 20.125 21.3125 9.0625 
Q 24.515625 -2 31 -13.1875 
L 23.1875 -13.1875 
Q 15.875 -1.703125 12.234375 9.375 
Q 8.59375 20.453125 8.59375 31.390625 
Q 8.59375 42.28125 12.203125 53.3125 
Q 15.828125 64.359375 23.1875 75.875 
z
" id="DejaVuSans-40"/>
      <path d="M 60.015625 54.6875 
L 34.90625 27.875 
L 50.296875 0 
L 39.984375 0 
L 28.421875 21.6875 
L 8.296875 0 
L -2.59375 0 
L 24.3125 28.8125 
L 10.015625 54.6875 
L 20.3125 54.6875 
L 30.8125 34.90625 
L 49.125 54.6875 
z
" id="DejaVuSans-Oblique-120"/>
      <path d="M 8.015625 75.875 
L 15.828125 75.875 
Q 23.140625 64.359375 26.78125 53.3125 
Q 30.421875 42.28125 30.421875 31.390625 
Q 30.421875 20.453125 26.78125 9.375 
Q 23.140625 -1.703125 15.828125 -13.1875 
L 8.015625 -13.1875 
Q 14.5 -2 17.703125 9.0625 
Q 20.90625 20.125 20.90625 31.390625 
Q 20.90625 42.671875 17.703125 53.65625 
Q 14.5 64.65625 8.015625 75.875 
z
" id="DejaVuSans-41"/>
      <path d="M 10.59375 45.40625 
L 73.1875 45.40625 
L 73.1875 37.203125 
L 10.59375 37.203125 
z
M 10.59375 25.484375 
L 73.1875 25.484375 
L 73.1875 17.1875 
L 10.59375 17.1875 
z
M 41.9375 76.5625 
L 33.84375 55.375 
L 50.140625 55.375 
z
M 39.265625 85.359375 
L 44.734375 85.359375 
L 58.84375 49.359375 
L 25.140625 49.359375 
z
" id="DejaVuSans-8796"/>
      <path d="M 44.28125 53.078125 
L 44.28125 44.578125 
Q 40.484375 46.53125 36.375 47.5 
Q 32.28125 48.484375 27.875 48.484375 
Q 21.1875 48.484375 17.84375 46.4375 
Q 14.5 44.390625 14.5 40.28125 
Q 14.5 37.15625 16.890625 35.375 
Q 19.28125 33.59375 26.515625 31.984375 
L 29.59375 31.296875 
Q 39.15625 29.25 43.1875 25.515625 
Q 47.21875 21.78125 47.21875 15.09375 
Q 47.21875 7.46875 41.1875 3.015625 
Q 35.15625 -1.421875 24.609375 -1.421875 
Q 20.21875 -1.421875 15.453125 -0.5625 
Q 10.6875 0.296875 5.421875 2 
L 5.421875 11.28125 
Q 10.40625 8.6875 15.234375 7.390625 
Q 20.0625 6.109375 24.8125 6.109375 
Q 31.15625 6.109375 34.5625 8.28125 
Q 37.984375 10.453125 37.984375 14.40625 
Q 37.984375 18.0625 35.515625 20.015625 
Q 33.0625 21.96875 24.703125 23.78125 
L 21.578125 24.515625 
Q 13.234375 26.265625 9.515625 29.90625 
Q 5.8125 33.546875 5.8125 39.890625 
Q 5.8125 47.609375 11.28125 51.796875 
Q 16.75 56 26.8125 56 
Q 31.78125 56 36.171875 55.265625 
Q 40.578125 54.546875 44.28125 53.078125 
z
" id="DejaVuSans-115"/>
      <path d="M 9.421875 54.6875 
L 18.40625 54.6875 
L 18.40625 0 
L 9.421875 0 
z
M 9.421875 75.984375 
L 18.40625 75.984375 
L 18.40625 64.59375 
L 9.421875 64.59375 
z
" id="DejaVuSans-105"/>
      <path d="M 54.890625 33.015625 
L 54.890625 0 
L 45.90625 0 
L 45.90625 32.71875 
Q 45.90625 40.484375 42.875 44.328125 
Q 39.84375 48.1875 33.796875 48.1875 
Q 26.515625 48.1875 22.3125 43.546875 
Q 18.109375 38.921875 18.109375 30.90625 
L 18.109375 0 
L 9.078125 0 
L 9.078125 54.6875 
L 18.109375 54.6875 
L 18.109375 46.1875 
Q 21.34375 51.125 25.703125 53.5625 
Q 30.078125 56 35.796875 56 
Q 45.21875 56 50.046875 50.171875 
Q 54.890625 44.34375 54.890625 33.015625 
z
" id="DejaVuSans-110"/>
      <path d="M 9.125 54.6875 
L 61.53125 54.6875 
L 59.765625 45.703125 
L 52.875 45.703125 
L 46.34375 12.109375 
Q 45.65625 8.59375 46.578125 7.03125 
Q 47.46875 5.515625 50.140625 5.515625 
Q 50.875 5.515625 51.953125 5.671875 
Q 53.078125 5.765625 53.421875 5.8125 
L 52.15625 -0.6875 
Q 50.34375 -1.3125 48.484375 -1.609375 
Q 46.578125 -1.90625 44.78125 -1.90625 
Q 38.921875 -1.90625 37.3125 1.265625 
Q 35.6875 4.5 37.359375 13.09375 
L 43.703125 45.703125 
L 23.53125 45.703125 
L 14.65625 0 
L 5.46875 0 
L 14.359375 45.703125 
L 7.375 45.703125 
z
" id="DejaVuSans-Oblique-960"/>
      <path d="M 10.6875 40.921875 
L 21 40.921875 
L 21 28.515625 
L 10.6875 28.515625 
z
" id="DejaVuSans-8901"/>
      <path d="M 46 62.703125 
L 46 35.5 
L 73.1875 35.5 
L 73.1875 27.203125 
L 46 27.203125 
L 46 0 
L 37.796875 0 
L 37.796875 27.203125 
L 10.59375 27.203125 
L 10.59375 35.5 
L 37.796875 35.5 
L 37.796875 62.703125 
z
" id="DejaVuSans-43"/>
     </defs>
     <use transform="translate(0 0.640625)" xlink:href="#DejaVuSans-102"/>
     <use transform="translate(35.205078 0.640625)" xlink:href="#DejaVuSans-40"/>
     <use transform="translate(74.21875 0.640625)" xlink:href="#DejaVuSans-Oblique-120"/>
     <use transform="translate(133.398438 0.640625)" xlink:href="#DejaVuSans-41"/>
     <use transform="translate(172.412109 0.640625)" xlink:href="#DejaVuSans-8796"/>
     <use transform="translate(256.201172 0.640625)" xlink:href="#DejaVuSans-Oblique-120"/>
     <use transform="translate(315.380859 0.640625)" xlink:href="#DejaVuSans-115"/>
     <use transform="translate(367.480469 0.640625)" xlink:href="#DejaVuSans-105"/>
     <use transform="translate(395.263672 0.640625)" xlink:href="#DejaVuSans-110"/>
     <use transform="translate(458.642578 0.640625)" xlink:href="#DejaVuSans-40"/>
     <use transform="translate(497.65625 0.640625)" xlink:href="#DejaVuSans-49"/>
     <use transform="translate(561.279297 0.640625)" xlink:href="#DejaVuSans-48"/>
     <use transform="translate(624.902344 0.640625)" xlink:href="#DejaVuSans-Oblique-960"/>
     <use transform="translate(704.589844 0.640625)" xlink:href="#DejaVuSans-8901"/>
     <use transform="translate(755.859375 0.640625)" xlink:href="#DejaVuSans-Oblique-120"/>
     <use transform="translate(815.039062 0.640625)" xlink:href="#DejaVuSans-41"/>
     <use transform="translate(873.535156 0.640625)" xlink:href="#DejaVuSans-43"/>
     <use transform="translate(976.806641 0.640625)" xlink:href="#DejaVuSans-50"/>
     <use transform="translate(1040.429688 0.640625)" xlink:href="#DejaVuSans-46"/>
     <use transform="translate(1072.216797 0.640625)" xlink:href="#DejaVuSans-48"/>
    </g>
   </g>
  </g>
 </g>
 <defs>
  <clipPath id="paba8eadad9">
   <rect height="354.816" width="624.96" x="100.8" y="55.296"/>
  </clipPath>
 </defs>
</svg>
