<?xml version="1.0" encoding="utf-8" standalone="no"?>
<!DOCTYPE svg PUBLIC "-//W3C//DTD SVG 1.1//EN"
  "http://www.w3.org/Graphics/SVG/1.1/DTD/svg11.dtd">
<!-- Created with matplotlib (https://matplotlib.org/) -->
<svg height="446.4pt" version="1.1" viewBox="0 0 767.52 446.4" width="767.52pt" xmlns="http://www.w3.org/2000/svg" xmlns:xlink="http://www.w3.org/1999/xlink">
 <metadata>
  <rdf:RDF xmlns:cc="http://creativecommons.org/ns#" xmlns:dc="http://purl.org/dc/elements/1.1/" xmlns:rdf="http://www.w3.org/1999/02/22-rdf-syntax-ns#">
   <cc:Work>
    <dc:type rdf:resource="http://purl.org/dc/dcmitype/StillImage"/>
    <dc:date>2020-11-26T19:03:10.395798</dc:date>
    <dc:format>image/svg+xml</dc:format>
    <dc:creator>
     <cc:Agent>
      <dc:title>Matplotlib v3.3.2, https://matplotlib.org/</dc:title>
     </cc:Agent>
    </dc:creator>
   </cc:Work>
  </rdf:RDF>
 </metadata>
 <defs>
  <style type="text/css">*{stroke-linecap:butt;stroke-linejoin:round;}</style>
 </defs>
 <g id="figure_1">
  <g id="patch_1">
   <path d="M 0 446.4 
L 767.52 446.4 
L 767.52 0 
L 0 0 
z
" style="fill:#ffffff;"/>
  </g>
  <g id="axes_1">
   <g id="patch_2">
    <path d="M 95.94 397.296 
L 690.768 397.296 
L 690.768 53.568 
L 95.94 53.568 
z
" style="fill:#ffffff;"/>
   </g>
   <g id="matplotlib.axis_1">
    <g id="xtick_1">
     <g id="line2d_1">
      <defs>
       <path d="M 0 0 
L 0 3.5 
" id="m539a31a37d" style="stroke:#000000;stroke-width:0.8;"/>
      </defs>
      <g>
       <use style="stroke:#000000;stroke-width:0.8;" x="122.977636" xlink:href="#m539a31a37d" y="397.296"/>
      </g>
     </g>
     <g id="text_1">
      <!-- −1.0 -->
      <g transform="translate(110.83623 411.894438)scale(0.1 -0.1)">
       <defs>
        <path d="M 10.59375 35.5 
L 73.1875 35.5 
L 73.1875 27.203125 
L 10.59375 27.203125 
z
" id="DejaVuSans-8722"/>
        <path d="M 12.40625 8.296875 
L 28.515625 8.296875 
L 28.515625 63.921875 
L 10.984375 60.40625 
L 10.984375 69.390625 
L 28.421875 72.90625 
L 38.28125 72.90625 
L 38.28125 8.296875 
L 54.390625 8.296875 
L 54.390625 0 
L 12.40625 0 
z
" id="DejaVuSans-49"/>
        <path d="M 10.6875 12.40625 
L 21 12.40625 
L 21 0 
L 10.6875 0 
z
" id="DejaVuSans-46"/>
        <path d="M 31.78125 66.40625 
Q 24.171875 66.40625 20.328125 58.90625 
Q 16.5 51.421875 16.5 36.375 
Q 16.5 21.390625 20.328125 13.890625 
Q 24.171875 6.390625 31.78125 6.390625 
Q 39.453125 6.390625 43.28125 13.890625 
Q 47.125 21.390625 47.125 36.375 
Q 47.125 51.421875 43.28125 58.90625 
Q 39.453125 66.40625 31.78125 66.40625 
z
M 31.78125 74.21875 
Q 44.046875 74.21875 50.515625 64.515625 
Q 56.984375 54.828125 56.984375 36.375 
Q 56.984375 17.96875 50.515625 8.265625 
Q 44.046875 -1.421875 31.78125 -1.421875 
Q 19.53125 -1.421875 13.0625 8.265625 
Q 6.59375 17.96875 6.59375 36.375 
Q 6.59375 54.828125 13.0625 64.515625 
Q 19.53125 74.21875 31.78125 74.21875 
z
" id="DejaVuSans-48"/>
       </defs>
       <use xlink:href="#DejaVuSans-8722"/>
       <use x="83.789062" xlink:href="#DejaVuSans-49"/>
       <use x="147.412109" xlink:href="#DejaVuSans-46"/>
       <use x="179.199219" xlink:href="#DejaVuSans-48"/>
      </g>
     </g>
    </g>
    <g id="xtick_2">
     <g id="line2d_2">
      <g>
       <use style="stroke:#000000;stroke-width:0.8;" x="213.133143" xlink:href="#m539a31a37d" y="397.296"/>
      </g>
     </g>
     <g id="text_2">
      <!-- −0.5 -->
      <g transform="translate(200.991736 411.894438)scale(0.1 -0.1)">
       <defs>
        <path d="M 10.796875 72.90625 
L 49.515625 72.90625 
L 49.515625 64.59375 
L 19.828125 64.59375 
L 19.828125 46.734375 
Q 21.96875 47.46875 24.109375 47.828125 
Q 26.265625 48.1875 28.421875 48.1875 
Q 40.625 48.1875 47.75 41.5 
Q 54.890625 34.8125 54.890625 23.390625 
Q 54.890625 11.625 47.5625 5.09375 
Q 40.234375 -1.421875 26.90625 -1.421875 
Q 22.3125 -1.421875 17.546875 -0.640625 
Q 12.796875 0.140625 7.71875 1.703125 
L 7.71875 11.625 
Q 12.109375 9.234375 16.796875 8.0625 
Q 21.484375 6.890625 26.703125 6.890625 
Q 35.15625 6.890625 40.078125 11.328125 
Q 45.015625 15.765625 45.015625 23.390625 
Q 45.015625 31 40.078125 35.4375 
Q 35.15625 39.890625 26.703125 39.890625 
Q 22.75 39.890625 18.8125 39.015625 
Q 14.890625 38.140625 10.796875 36.28125 
z
" id="DejaVuSans-53"/>
       </defs>
       <use xlink:href="#DejaVuSans-8722"/>
       <use x="83.789062" xlink:href="#DejaVuSans-48"/>
       <use x="147.412109" xlink:href="#DejaVuSans-46"/>
       <use x="179.199219" xlink:href="#DejaVuSans-53"/>
      </g>
     </g>
    </g>
    <g id="xtick_3">
     <g id="line2d_3">
      <g>
       <use style="stroke:#000000;stroke-width:0.8;" x="303.288649" xlink:href="#m539a31a37d" y="397.296"/>
      </g>
     </g>
     <g id="text_3">
      <!-- 0.0 -->
      <g transform="translate(295.337087 411.894438)scale(0.1 -0.1)">
       <use xlink:href="#DejaVuSans-48"/>
       <use x="63.623047" xlink:href="#DejaVuSans-46"/>
       <use x="95.410156" xlink:href="#DejaVuSans-48"/>
      </g>
     </g>
    </g>
    <g id="xtick_4">
     <g id="line2d_4">
      <g>
       <use style="stroke:#000000;stroke-width:0.8;" x="393.444156" xlink:href="#m539a31a37d" y="397.296"/>
      </g>
     </g>
     <g id="text_4">
      <!-- 0.5 -->
      <g transform="translate(385.492593 411.894438)scale(0.1 -0.1)">
       <use xlink:href="#DejaVuSans-48"/>
       <use x="63.623047" xlink:href="#DejaVuSans-46"/>
       <use x="95.410156" xlink:href="#DejaVuSans-53"/>
      </g>
     </g>
    </g>
    <g id="xtick_5">
     <g id="line2d_5">
      <g>
       <use style="stroke:#000000;stroke-width:0.8;" x="483.599662" xlink:href="#m539a31a37d" y="397.296"/>
      </g>
     </g>
     <g id="text_5">
      <!-- 1.0 -->
      <g transform="translate(475.648099 411.894438)scale(0.1 -0.1)">
       <use xlink:href="#DejaVuSans-49"/>
       <use x="63.623047" xlink:href="#DejaVuSans-46"/>
       <use x="95.410156" xlink:href="#DejaVuSans-48"/>
      </g>
     </g>
    </g>
    <g id="xtick_6">
     <g id="line2d_6">
      <g>
       <use style="stroke:#000000;stroke-width:0.8;" x="573.755168" xlink:href="#m539a31a37d" y="397.296"/>
      </g>
     </g>
     <g id="text_6">
      <!-- 1.5 -->
      <g transform="translate(565.803606 411.894438)scale(0.1 -0.1)">
       <use xlink:href="#DejaVuSans-49"/>
       <use x="63.623047" xlink:href="#DejaVuSans-46"/>
       <use x="95.410156" xlink:href="#DejaVuSans-53"/>
      </g>
     </g>
    </g>
    <g id="xtick_7">
     <g id="line2d_7">
      <g>
       <use style="stroke:#000000;stroke-width:0.8;" x="663.910675" xlink:href="#m539a31a37d" y="397.296"/>
      </g>
     </g>
     <g id="text_7">
      <!-- 2.0 -->
      <g transform="translate(655.959112 411.894438)scale(0.1 -0.1)">
       <defs>
        <path d="M 19.1875 8.296875 
L 53.609375 8.296875 
L 53.609375 0 
L 7.328125 0 
L 7.328125 8.296875 
Q 12.9375 14.109375 22.625 23.890625 
Q 32.328125 33.6875 34.8125 36.53125 
Q 39.546875 41.84375 41.421875 45.53125 
Q 43.3125 49.21875 43.3125 52.78125 
Q 43.3125 58.59375 39.234375 62.25 
Q 35.15625 65.921875 28.609375 65.921875 
Q 23.96875 65.921875 18.8125 64.3125 
Q 13.671875 62.703125 7.8125 59.421875 
L 7.8125 69.390625 
Q 13.765625 71.78125 18.9375 73 
Q 24.125 74.21875 28.421875 74.21875 
Q 39.75 74.21875 46.484375 68.546875 
Q 53.21875 62.890625 53.21875 53.421875 
Q 53.21875 48.921875 51.53125 44.890625 
Q 49.859375 40.875 45.40625 35.40625 
Q 44.1875 33.984375 37.640625 27.21875 
Q 31.109375 20.453125 19.1875 8.296875 
z
" id="DejaVuSans-50"/>
       </defs>
       <use xlink:href="#DejaVuSans-50"/>
       <use x="63.623047" xlink:href="#DejaVuSans-46"/>
       <use x="95.410156" xlink:href="#DejaVuSans-48"/>
      </g>
     </g>
    </g>
    <g id="text_8">
     <!-- x -->
     <g transform="translate(390.394625 425.572563)scale(0.1 -0.1)">
      <defs>
       <path d="M 54.890625 54.6875 
L 35.109375 28.078125 
L 55.90625 0 
L 45.3125 0 
L 29.390625 21.484375 
L 13.484375 0 
L 2.875 0 
L 24.125 28.609375 
L 4.6875 54.6875 
L 15.28125 54.6875 
L 29.78125 35.203125 
L 44.28125 54.6875 
z
" id="DejaVuSans-120"/>
      </defs>
      <use xlink:href="#DejaVuSans-120"/>
     </g>
    </g>
   </g>
   <g id="matplotlib.axis_2">
    <g id="ytick_1">
     <g id="line2d_8">
      <defs>
       <path d="M 0 0 
L -3.5 0 
" id="m57ba5f4a74" style="stroke:#000000;stroke-width:0.8;"/>
      </defs>
      <g>
       <use style="stroke:#000000;stroke-width:0.8;" x="95.94" xlink:href="#m57ba5f4a74" y="385.780378"/>
      </g>
     </g>
     <g id="text_9">
      <!-- 0.0 -->
      <g transform="translate(73.036875 389.579597)scale(0.1 -0.1)">
       <use xlink:href="#DejaVuSans-48"/>
       <use x="63.623047" xlink:href="#DejaVuSans-46"/>
       <use x="95.410156" xlink:href="#DejaVuSans-48"/>
      </g>
     </g>
    </g>
    <g id="ytick_2">
     <g id="line2d_9">
      <g>
       <use style="stroke:#000000;stroke-width:0.8;" x="95.94" xlink:href="#m57ba5f4a74" y="344.665929"/>
      </g>
     </g>
     <g id="text_10">
      <!-- 0.5 -->
      <g transform="translate(73.036875 348.465148)scale(0.1 -0.1)">
       <use xlink:href="#DejaVuSans-48"/>
       <use x="63.623047" xlink:href="#DejaVuSans-46"/>
       <use x="95.410156" xlink:href="#DejaVuSans-53"/>
      </g>
     </g>
    </g>
    <g id="ytick_3">
     <g id="line2d_10">
      <g>
       <use style="stroke:#000000;stroke-width:0.8;" x="95.94" xlink:href="#m57ba5f4a74" y="303.551481"/>
      </g>
     </g>
     <g id="text_11">
      <!-- 1.0 -->
      <g transform="translate(73.036875 307.3507)scale(0.1 -0.1)">
       <use xlink:href="#DejaVuSans-49"/>
       <use x="63.623047" xlink:href="#DejaVuSans-46"/>
       <use x="95.410156" xlink:href="#DejaVuSans-48"/>
      </g>
     </g>
    </g>
    <g id="ytick_4">
     <g id="line2d_11">
      <g>
       <use style="stroke:#000000;stroke-width:0.8;" x="95.94" xlink:href="#m57ba5f4a74" y="262.437032"/>
      </g>
     </g>
     <g id="text_12">
      <!-- 1.5 -->
      <g transform="translate(73.036875 266.236251)scale(0.1 -0.1)">
       <use xlink:href="#DejaVuSans-49"/>
       <use x="63.623047" xlink:href="#DejaVuSans-46"/>
       <use x="95.410156" xlink:href="#DejaVuSans-53"/>
      </g>
     </g>
    </g>
    <g id="ytick_5">
     <g id="line2d_12">
      <g>
       <use style="stroke:#000000;stroke-width:0.8;" x="95.94" xlink:href="#m57ba5f4a74" y="221.322584"/>
      </g>
     </g>
     <g id="text_13">
      <!-- 2.0 -->
      <g transform="translate(73.036875 225.121803)scale(0.1 -0.1)">
       <use xlink:href="#DejaVuSans-50"/>
       <use x="63.623047" xlink:href="#DejaVuSans-46"/>
       <use x="95.410156" xlink:href="#DejaVuSans-48"/>
      </g>
     </g>
    </g>
    <g id="ytick_6">
     <g id="line2d_13">
      <g>
       <use style="stroke:#000000;stroke-width:0.8;" x="95.94" xlink:href="#m57ba5f4a74" y="180.208135"/>
      </g>
     </g>
     <g id="text_14">
      <!-- 2.5 -->
      <g transform="translate(73.036875 184.007354)scale(0.1 -0.1)">
       <use xlink:href="#DejaVuSans-50"/>
       <use x="63.623047" xlink:href="#DejaVuSans-46"/>
       <use x="95.410156" xlink:href="#DejaVuSans-53"/>
      </g>
     </g>
    </g>
    <g id="ytick_7">
     <g id="line2d_14">
      <g>
       <use style="stroke:#000000;stroke-width:0.8;" x="95.94" xlink:href="#m57ba5f4a74" y="139.093687"/>
      </g>
     </g>
     <g id="text_15">
      <!-- 3.0 -->
      <g transform="translate(73.036875 142.892906)scale(0.1 -0.1)">
       <defs>
        <path d="M 40.578125 39.3125 
Q 47.65625 37.796875 51.625 33 
Q 55.609375 28.21875 55.609375 21.1875 
Q 55.609375 10.40625 48.1875 4.484375 
Q 40.765625 -1.421875 27.09375 -1.421875 
Q 22.515625 -1.421875 17.65625 -0.515625 
Q 12.796875 0.390625 7.625 2.203125 
L 7.625 11.71875 
Q 11.71875 9.328125 16.59375 8.109375 
Q 21.484375 6.890625 26.8125 6.890625 
Q 36.078125 6.890625 40.9375 10.546875 
Q 45.796875 14.203125 45.796875 21.1875 
Q 45.796875 27.640625 41.28125 31.265625 
Q 36.765625 34.90625 28.71875 34.90625 
L 20.21875 34.90625 
L 20.21875 43.015625 
L 29.109375 43.015625 
Q 36.375 43.015625 40.234375 45.921875 
Q 44.09375 48.828125 44.09375 54.296875 
Q 44.09375 59.90625 40.109375 62.90625 
Q 36.140625 65.921875 28.71875 65.921875 
Q 24.65625 65.921875 20.015625 65.03125 
Q 15.375 64.15625 9.8125 62.3125 
L 9.8125 71.09375 
Q 15.4375 72.65625 20.34375 73.4375 
Q 25.25 74.21875 29.59375 74.21875 
Q 40.828125 74.21875 47.359375 69.109375 
Q 53.90625 64.015625 53.90625 55.328125 
Q 53.90625 49.265625 50.4375 45.09375 
Q 46.96875 40.921875 40.578125 39.3125 
z
" id="DejaVuSans-51"/>
       </defs>
       <use xlink:href="#DejaVuSans-51"/>
       <use x="63.623047" xlink:href="#DejaVuSans-46"/>
       <use x="95.410156" xlink:href="#DejaVuSans-48"/>
      </g>
     </g>
    </g>
    <g id="ytick_8">
     <g id="line2d_15">
      <g>
       <use style="stroke:#000000;stroke-width:0.8;" x="95.94" xlink:href="#m57ba5f4a74" y="97.979239"/>
      </g>
     </g>
     <g id="text_16">
      <!-- 3.5 -->
      <g transform="translate(73.036875 101.778457)scale(0.1 -0.1)">
       <use xlink:href="#DejaVuSans-51"/>
       <use x="63.623047" xlink:href="#DejaVuSans-46"/>
       <use x="95.410156" xlink:href="#DejaVuSans-53"/>
      </g>
     </g>
    </g>
    <g id="ytick_9">
     <g id="line2d_16">
      <g>
       <use style="stroke:#000000;stroke-width:0.8;" x="95.94" xlink:href="#m57ba5f4a74" y="56.86479"/>
      </g>
     </g>
     <g id="text_17">
      <!-- 4.0 -->
      <g transform="translate(73.036875 60.664009)scale(0.1 -0.1)">
       <defs>
        <path d="M 37.796875 64.3125 
L 12.890625 25.390625 
L 37.796875 25.390625 
z
M 35.203125 72.90625 
L 47.609375 72.90625 
L 47.609375 25.390625 
L 58.015625 25.390625 
L 58.015625 17.1875 
L 47.609375 17.1875 
L 47.609375 0 
L 37.796875 0 
L 37.796875 17.1875 
L 4.890625 17.1875 
L 4.890625 26.703125 
z
" id="DejaVuSans-52"/>
       </defs>
       <use xlink:href="#DejaVuSans-52"/>
       <use x="63.623047" xlink:href="#DejaVuSans-46"/>
       <use x="95.410156" xlink:href="#DejaVuSans-48"/>
      </g>
     </g>
    </g>
    <g id="text_18">
     <!-- y -->
     <g transform="translate(66.957187 228.391375)rotate(-90)scale(0.1 -0.1)">
      <defs>
       <path d="M 32.171875 -5.078125 
Q 28.375 -14.84375 24.75 -17.8125 
Q 21.140625 -20.796875 15.09375 -20.796875 
L 7.90625 -20.796875 
L 7.90625 -13.28125 
L 13.1875 -13.28125 
Q 16.890625 -13.28125 18.9375 -11.515625 
Q 21 -9.765625 23.484375 -3.21875 
L 25.09375 0.875 
L 2.984375 54.6875 
L 12.5 54.6875 
L 29.59375 11.921875 
L 46.6875 54.6875 
L 56.203125 54.6875 
z
" id="DejaVuSans-121"/>
      </defs>
      <use xlink:href="#DejaVuSans-121"/>
     </g>
    </g>
   </g>
   <g id="line2d_17">
    <path clip-path="url(#p13faacc7d7)" d="M 122.977636 221.322584 
L 125.32168 253.555075 
L 126.764168 270.662883 
L 127.846034 281.338008 
L 128.747589 288.529037 
L 129.649144 293.996294 
L 130.370388 297.048955 
L 130.911321 298.540996 
L 131.452254 299.33894 
L 131.812876 299.483678 
L 132.173498 299.319301 
L 132.53412 298.847756 
L 133.075053 297.571727 
L 133.615986 295.627605 
L 134.33723 292.03418 
L 135.238785 286.029623 
L 136.320651 276.829141 
L 137.582828 263.798301 
L 139.205628 244.445799 
L 144.074025 184.362046 
L 145.336202 172.012935 
L 146.418068 163.446204 
L 147.319623 157.947076 
L 148.040867 154.709091 
L 148.762111 152.549569 
L 149.303044 151.652839 
L 149.663666 151.401809 
L 150.024288 151.428022 
L 150.38491 151.730076 
L 150.745532 152.305483 
L 151.286465 153.673049 
L 151.827398 155.630948 
L 152.548642 159.121734 
L 153.450198 164.806338 
L 154.532064 173.35328 
L 155.794241 185.281139 
L 157.597351 204.799392 
L 161.744504 250.627527 
L 163.186992 263.575024 
L 164.268858 271.41721 
L 165.170413 276.518806 
L 165.891657 279.580909 
L 166.612901 281.693892 
L 167.153834 282.641059 
L 167.514457 282.966147 
L 167.875079 283.046014 
L 168.235701 282.881637 
L 168.596323 282.474964 
L 169.137256 281.417247 
L 169.678189 279.834827 
L 170.399433 276.940989 
L 171.300988 272.143993 
L 172.382854 264.840684 
L 173.645031 254.554402 
L 175.26783 239.363774 
L 179.955916 194.226558 
L 181.218093 184.508038 
L 182.29996 177.725315 
L 183.201515 173.332135 
L 183.922759 170.709708 
L 184.644003 168.915829 
L 185.184936 168.125761 
L 185.545558 167.865417 
L 185.90618 167.817986 
L 186.266802 167.982363 
L 186.627424 168.3566 
L 187.168357 169.30516 
L 187.70929 170.70673 
L 188.430534 173.250773 
L 189.332089 177.443991 
L 190.413955 183.798713 
L 191.676132 192.712716 
L 193.479242 207.351435 
L 197.626396 241.839242 
L 199.068884 251.618264 
L 200.15075 257.56362 
L 201.052305 261.453635 
L 201.773549 263.809914 
L 202.494793 265.463399 
L 203.035726 266.232037 
L 203.576659 266.593355 
L 203.937281 266.608349 
L 204.297903 266.443973 
L 204.838836 265.865536 
L 205.379769 264.897551 
L 206.101013 263.023714 
L 206.822257 260.520153 
L 207.723812 256.580609 
L 208.805678 250.81831 
L 210.248167 241.763446 
L 212.59221 225.215011 
L 215.116564 207.701956 
L 216.559052 199.091006 
L 217.821229 192.90994 
L 218.722784 189.42593 
L 219.624339 186.799624 
L 220.345583 185.348593 
L 220.886516 184.648993 
L 221.427449 184.285038 
L 221.968382 184.255651 
L 222.509315 184.556731 
L 223.050248 185.181231 
L 223.591181 186.119262 
L 224.312426 187.835515 
L 225.213981 190.675767 
L 226.295847 194.98488 
L 227.558024 201.022752 
L 229.361134 210.904432 
L 233.327976 233.067529 
L 234.770464 239.689098 
L 235.85233 243.740999 
L 236.753885 246.418246 
L 237.65544 248.405251 
L 238.376685 249.476142 
L 238.917618 249.971319 
L 239.458551 250.20208 
L 239.999484 250.170685 
L 240.540417 249.881774 
L 241.08135 249.342284 
L 241.802594 248.249271 
L 242.523838 246.754609 
L 243.425393 244.372731 
L 244.507259 240.863769 
L 245.949747 235.333806 
L 248.29379 225.245931 
L 250.818144 214.646715 
L 252.260633 209.476794 
L 253.52281 205.786667 
L 254.604676 203.360949 
L 255.506231 201.906966 
L 256.227475 201.129643 
L 256.948719 200.698704 
L 257.489652 200.601138 
L 258.030585 200.693315 
L 258.571518 200.970058 
L 259.292762 201.614119 
L 260.014006 202.553545 
L 260.915561 204.10496 
L 261.997427 206.443635 
L 263.439915 210.184478 
L 265.783958 217.069089 
L 268.308313 224.311767 
L 269.750801 227.834697 
L 271.012978 230.343946 
L 272.094844 231.993363 
L 272.996399 232.986514 
L 273.897954 233.623534 
L 274.619198 233.877842 
L 275.340442 233.911145 
L 276.061686 233.733021 
L 276.963241 233.233337 
L 277.864796 232.456492 
L 278.946662 231.213559 
L 280.389151 229.156046 
L 282.733194 225.313879 
L 285.077237 221.583454 
L 286.519725 219.65438 
L 287.781902 218.311607 
L 288.863768 217.455949 
L 289.945634 216.886855 
L 291.0275 216.601469 
L 292.109366 216.582405 
L 293.191232 216.79933 
L 294.45341 217.295356 
L 296.076209 218.194411 
L 300.043051 220.529496 
L 301.485539 221.068483 
L 302.747716 221.299369 
L 304.009893 221.28136 
L 305.27207 221.016189 
L 306.534247 220.529496 
L 308.157046 219.657202 
L 312.664822 217.055119 
L 313.926999 216.663714 
L 315.008865 216.560262 
L 316.090731 216.70946 
L 316.992286 217.044578 
L 318.074152 217.709627 
L 319.156018 218.658782 
L 320.418195 220.100558 
L 321.860683 222.119641 
L 324.024416 225.615665 
L 326.729081 229.970779 
L 328.171569 231.873304 
L 329.253435 232.953809 
L 330.15499 233.568644 
L 330.876234 233.84777 
L 331.597478 233.921608 
L 332.318722 233.778766 
L 333.039966 233.411554 
L 333.76121 232.816261 
L 334.662765 231.752542 
L 335.56432 230.343946 
L 336.646186 228.228844 
L 337.908364 225.248887 
L 339.531163 220.803427 
L 344.579871 206.443635 
L 345.842048 203.763492 
L 346.743603 202.292286 
L 347.645158 201.253782 
L 348.366402 200.76536 
L 348.907335 200.611001 
L 349.448268 200.64485 
L 349.989201 200.870936 
L 350.710445 201.475039 
L 351.43169 202.424893 
L 352.333245 204.089084 
L 353.2348 206.259616 
L 354.316666 209.476794 
L 355.578843 213.953647 
L 357.381953 221.322584 
L 361.709417 239.560399 
L 362.971594 243.833869 
L 364.05346 246.754609 
L 364.955015 248.561353 
L 365.67626 249.549436 
L 366.217193 250.006308 
L 366.758126 250.21004 
L 367.299059 250.154449 
L 367.839992 249.835682 
L 368.380925 249.252283 
L 369.102169 248.06485 
L 369.823413 246.418246 
L 370.724968 243.740999 
L 371.806834 239.689098 
L 373.069011 233.960856 
L 374.69181 225.403765 
L 379.92083 196.611124 
L 381.183007 191.329621 
L 382.084562 188.343964 
L 382.986117 186.119262 
L 383.707361 184.937682 
L 384.248294 184.420027 
L 384.789227 184.228464 
L 385.149849 184.285038 
L 385.690782 184.648993 
L 386.231715 185.348593 
L 386.772648 186.381849 
L 387.493892 188.26932 
L 388.395447 191.417394 
L 389.297002 195.383827 
L 390.378868 201.105211 
L 391.821356 210.058489 
L 393.985089 225.215011 
L 396.870065 245.310502 
L 398.312553 253.828369 
L 399.394419 259.047187 
L 400.295974 262.455102 
L 401.017218 264.490458 
L 401.738462 265.865536 
L 402.279395 266.443973 
L 402.640017 266.608349 
L 403.000639 266.593355 
L 403.361261 266.397754 
L 403.902194 265.764787 
L 404.443127 264.725801 
L 405.164371 262.718147 
L 405.885615 260.02023 
L 406.78717 255.729456 
L 407.869037 249.355685 
L 409.131214 240.492262 
L 410.934324 225.942422 
L 415.261788 190.025009 
L 416.523965 181.533475 
L 417.605831 175.637982 
L 418.507386 171.884695 
L 419.22863 169.722761 
L 419.769563 168.621583 
L 420.310496 167.982363 
L 420.671118 167.817986 
L 421.03174 167.865417 
L 421.392362 168.125761 
L 421.933296 168.915829 
L 422.474229 170.182608 
L 423.195473 172.600372 
L 423.916717 175.823945 
L 424.818272 180.921483 
L 425.900138 188.45619 
L 427.162315 198.887202 
L 428.965425 215.928903 
L 433.112578 256.122296 
L 434.374755 266.16453 
L 435.456621 273.202761 
L 436.358177 277.746001 
L 437.079421 280.419563 
L 437.620354 281.828893 
L 438.161287 282.708428 
L 438.521909 282.994257 
L 438.882531 283.036695 
L 439.243153 282.834279 
L 439.603775 282.386516 
L 440.144708 281.256177 
L 440.685641 279.580909 
L 441.406885 276.518806 
L 442.30844 271.41721 
L 443.209995 265.003277 
L 444.291861 255.777853 
L 445.734349 241.396584 
L 447.898081 217.181701 
L 450.783058 185.281139 
L 452.225546 171.810256 
L 453.307412 163.55836 
L 454.208967 158.157583 
L 454.930211 154.913952 
L 455.651455 152.694622 
L 456.192388 151.730076 
L 456.55301 151.428022 
L 456.913632 151.401809 
L 457.274254 151.652839 
L 457.634876 152.181412 
L 458.175809 153.492602 
L 458.716742 155.418809 
L 459.437986 158.920588 
L 460.339541 164.7306 
L 461.241096 172.012935 
L 462.322962 182.46127 
L 463.76545 198.707571 
L 466.109494 228.31038 
L 468.633848 259.706291 
L 470.076336 275.106349 
L 471.158202 284.639822 
L 472.059757 290.963727 
L 472.781001 294.834652 
L 473.502245 297.571727 
L 474.043178 298.847756 
L 474.4038 299.319301 
L 474.764422 299.483678 
L 475.125044 299.33894 
L 475.485666 298.884363 
L 476.026599 297.622997 
L 476.567532 295.672836 
L 477.288776 292.024741 
L 478.01002 287.2242 
L 478.911576 279.706371 
L 479.993442 268.688858 
L 481.255619 253.555075 
L 483.058729 229.037791 
L 487.025571 174.224917 
L 488.287748 159.821798 
L 489.369614 149.672729 
L 490.271169 143.064393 
L 490.992413 139.121174 
L 491.713657 136.451318 
L 492.25459 135.316748 
L 492.615213 134.982242 
L 492.975835 134.988482 
L 493.336457 135.33674 
L 493.697079 136.026933 
L 494.238012 137.699824 
L 494.778945 140.12791 
L 495.500189 144.509042 
L 496.401744 151.735885 
L 497.48361 162.75646 
L 498.745787 178.380929 
L 500.368586 201.716702 
L 505.597605 280.131845 
L 506.859783 294.67775 
L 507.941649 304.480043 
L 508.843204 310.475518 
L 509.564448 313.726206 
L 510.105381 315.220549 
L 510.466003 315.756966 
L 510.826625 315.921342 
L 511.187247 315.711732 
L 511.547869 315.127668 
L 512.088802 313.552102 
L 512.629735 311.146353 
L 513.350979 306.678037 
L 514.072223 300.826184 
L 514.973778 291.694828 
L 516.055644 278.355445 
L 517.498132 257.283909 
L 519.481553 224.419448 
L 522.727152 170.381502 
L 524.16964 150.095436 
L 525.251506 137.602368 
L 526.153061 129.360562 
L 526.874305 124.349217 
L 527.595549 120.841722 
L 528.136482 119.238223 
L 528.497104 118.66937 
L 528.857726 118.504993 
L 529.218348 118.747039 
L 529.57897 119.395848 
L 530.119903 121.128514 
L 530.660836 123.762056 
L 531.38208 128.640482 
L 532.103324 135.017991 
L 533.004879 144.956111 
L 534.086745 159.45643 
L 535.529234 182.334211 
L 537.512655 217.967433 
L 540.758253 276.449457 
L 542.200741 298.364193 
L 543.282607 311.843792 
L 544.184162 320.724899 
L 544.905406 326.116384 
L 545.62665 329.880686 
L 546.167583 331.593341 
L 546.528205 332.19463 
L 546.888827 332.359007 
L 547.249449 332.084525 
L 547.610071 331.370972 
L 548.151004 329.481207 
L 548.691937 326.619871 
L 549.413182 321.331334 
L 550.134426 314.428169 
L 551.035981 303.683285 
L 552.117847 288.022031 
L 553.560335 263.338004 
L 555.543756 224.936022 
L 558.789354 162.00992 
L 560.231842 138.466514 
L 561.313708 124.000384 
L 562.215263 114.479976 
L 562.936508 108.708351 
L 563.657752 104.687242 
L 564.198685 102.865431 
L 564.559307 102.231705 
L 564.919929 102.067329 
L 565.280551 102.374247 
L 565.641173 103.152543 
L 566.182106 105.199409 
L 566.723039 108.288538 
L 567.444283 113.987185 
L 568.345838 123.531459 
L 569.247393 135.559283 
L 570.329259 152.87151 
L 571.771747 179.84791 
L 573.935479 225.199475 
L 576.640144 281.377519 
L 578.082633 307.107863 
L 579.164499 323.105184 
L 580.066054 333.786636 
L 580.967609 341.757249 
L 581.688853 346.035165 
L 582.229786 347.966133 
L 582.590408 348.632295 
L 582.95103 348.796671 
L 583.311652 348.457317 
L 583.672274 347.614277 
L 584.213207 345.410312 
L 584.75414 342.093388 
L 585.475384 335.984631 
L 586.376939 325.766167 
L 587.278494 312.900346 
L 588.36036 294.395607 
L 589.802848 265.582662 
L 592.146892 213.051145 
L 594.671246 157.306242 
L 596.113734 129.908349 
L 597.1956 112.887527 
L 598.097155 101.531883 
L 598.818399 94.517108 
L 599.539643 89.474202 
L 600.080576 87.041085 
L 600.441198 86.076766 
L 600.80182 85.644904 
L 600.982131 85.629664 
L 601.162442 85.7485 
L 601.523064 86.388441 
L 601.883686 87.563494 
L 602.424619 90.32149 
L 602.965552 94.255213 
L 603.686796 101.274403 
L 604.588351 112.75174 
L 605.670218 130.129093 
L 606.932395 154.612485 
L 608.555194 190.954095 
L 613.603902 308.058697 
L 614.866079 330.805992 
L 615.947945 346.270691 
L 616.8495 355.864819 
L 617.570744 361.195822 
L 618.111677 363.762133 
L 618.472299 364.775065 
L 618.832921 365.223154 
L 619.013232 365.234336 
L 619.193543 365.103332 
L 619.554166 364.414777 
L 619.914788 363.158913 
L 620.455721 360.220067 
L 620.996654 356.035404 
L 621.717898 348.576538 
L 622.619453 336.390785 
L 623.701319 317.95397 
L 624.963496 291.994091 
L 626.586295 253.484841 
L 631.635003 129.546604 
L 632.89718 105.50333 
L 633.979047 89.168704 
L 634.880602 79.04359 
L 635.601846 73.42449 
L 636.142779 70.724985 
L 636.503401 69.663439 
L 636.864023 69.199125 
L 637.044334 69.192 
L 637.224645 69.335172 
L 637.585267 70.072342 
L 637.945889 71.409015 
L 638.486822 74.528711 
L 639.027755 78.964315 
L 639.748999 86.862857 
L 640.650554 99.757025 
L 641.73242 119.253304 
L 642.994597 146.68967 
L 644.617396 187.366559 
L 649.666105 318.138431 
L 650.928282 343.477683 
L 652.010148 360.682237 
L 652.911703 371.338337 
L 653.632947 377.245534 
L 654.17388 380.078232 
L 654.534502 381.188393 
L 654.895124 381.668933 
L 655.075435 381.672 
L 655.255746 381.516659 
L 655.616368 380.730876 
L 655.97699 379.313393 
L 656.517923 376.012845 
L 657.058856 371.326303 
L 657.7801 362.988084 
L 658.681655 349.3855 
L 659.763521 328.829759 
L 661.025698 299.916905 
L 662.648498 257.072376 
L 663.730364 226.485745 
L 663.730364 226.485745 
" style="fill:none;stroke:#1f77b4;stroke-linecap:square;stroke-width:1.5;"/>
   </g>
   <g id="patch_3">
    <path d="M 95.94 397.296 
L 95.94 53.568 
" style="fill:none;stroke:#000000;stroke-linecap:square;stroke-linejoin:miter;stroke-width:0.8;"/>
   </g>
   <g id="patch_4">
    <path d="M 690.768 397.296 
L 690.768 53.568 
" style="fill:none;stroke:#000000;stroke-linecap:square;stroke-linejoin:miter;stroke-width:0.8;"/>
   </g>
   <g id="patch_5">
    <path d="M 95.94 397.296 
L 690.768 397.296 
" style="fill:none;stroke:#000000;stroke-linecap:square;stroke-linejoin:miter;stroke-width:0.8;"/>
   </g>
   <g id="patch_6">
    <path d="M 95.94 53.568 
L 690.768 53.568 
" style="fill:none;stroke:#000000;stroke-linecap:square;stroke-linejoin:miter;stroke-width:0.8;"/>
   </g>
   <g id="text_19">
    <!-- $\mathrm{f}(x)\triangleq x\sin{\left({10\pi\cdot x}\right)}+2.0$ -->
    <g transform="translate(325.194 47.568)scale(0.12 -0.12)">
     <defs>
      <path d="M 37.109375 75.984375 
L 37.109375 68.5 
L 28.515625 68.5 
Q 23.6875 68.5 21.796875 66.546875 
Q 19.921875 64.59375 19.921875 59.515625 
L 19.921875 54.6875 
L 34.71875 54.6875 
L 34.71875 47.703125 
L 19.921875 47.703125 
L 19.921875 0 
L 10.890625 0 
L 10.890625 47.703125 
L 2.296875 47.703125 
L 2.296875 54.6875 
L 10.890625 54.6875 
L 10.890625 58.5 
Q 10.890625 67.625 15.140625 71.796875 
Q 19.390625 75.984375 28.609375 75.984375 
z
" id="DejaVuSans-102"/>
      <path d="M 31 75.875 
Q 24.46875 64.65625 21.28125 53.65625 
Q 18.109375 42.671875 18.109375 31.390625 
Q 18.109375 20.125 21.3125 9.0625 
Q 24.515625 -2 31 -13.1875 
L 23.1875 -13.1875 
Q 15.875 -1.703125 12.234375 9.375 
Q 8.59375 20.453125 8.59375 31.390625 
Q 8.59375 42.28125 12.203125 53.3125 
Q 15.828125 64.359375 23.1875 75.875 
z
" id="DejaVuSans-40"/>
      <path d="M 60.015625 54.6875 
L 34.90625 27.875 
L 50.296875 0 
L 39.984375 0 
L 28.421875 21.6875 
L 8.296875 0 
L -2.59375 0 
L 24.3125 28.8125 
L 10.015625 54.6875 
L 20.3125 54.6875 
L 30.8125 34.90625 
L 49.125 54.6875 
z
" id="DejaVuSans-Oblique-120"/>
      <path d="M 8.015625 75.875 
L 15.828125 75.875 
Q 23.140625 64.359375 26.78125 53.3125 
Q 30.421875 42.28125 30.421875 31.390625 
Q 30.421875 20.453125 26.78125 9.375 
Q 23.140625 -1.703125 15.828125 -13.1875 
L 8.015625 -13.1875 
Q 14.5 -2 17.703125 9.0625 
Q 20.90625 20.125 20.90625 31.390625 
Q 20.90625 42.671875 17.703125 53.65625 
Q 14.5 64.65625 8.015625 75.875 
z
" id="DejaVuSans-41"/>
      <path d="M 10.59375 45.40625 
L 73.1875 45.40625 
L 73.1875 37.203125 
L 10.59375 37.203125 
z
M 10.59375 25.484375 
L 73.1875 25.484375 
L 73.1875 17.1875 
L 10.59375 17.1875 
z
M 41.9375 76.5625 
L 33.84375 55.375 
L 50.140625 55.375 
z
M 39.265625 85.359375 
L 44.734375 85.359375 
L 58.84375 49.359375 
L 25.140625 49.359375 
z
" id="DejaVuSans-8796"/>
      <path d="M 44.28125 53.078125 
L 44.28125 44.578125 
Q 40.484375 46.53125 36.375 47.5 
Q 32.28125 48.484375 27.875 48.484375 
Q 21.1875 48.484375 17.84375 46.4375 
Q 14.5 44.390625 14.5 40.28125 
Q 14.5 37.15625 16.890625 35.375 
Q 19.28125 33.59375 26.515625 31.984375 
L 29.59375 31.296875 
Q 39.15625 29.25 43.1875 25.515625 
Q 47.21875 21.78125 47.21875 15.09375 
Q 47.21875 7.46875 41.1875 3.015625 
Q 35.15625 -1.421875 24.609375 -1.421875 
Q 20.21875 -1.421875 15.453125 -0.5625 
Q 10.6875 0.296875 5.421875 2 
L 5.421875 11.28125 
Q 10.40625 8.6875 15.234375 7.390625 
Q 20.0625 6.109375 24.8125 6.109375 
Q 31.15625 6.109375 34.5625 8.28125 
Q 37.984375 10.453125 37.984375 14.40625 
Q 37.984375 18.0625 35.515625 20.015625 
Q 33.0625 21.96875 24.703125 23.78125 
L 21.578125 24.515625 
Q 13.234375 26.265625 9.515625 29.90625 
Q 5.8125 33.546875 5.8125 39.890625 
Q 5.8125 47.609375 11.28125 51.796875 
Q 16.75 56 26.8125 56 
Q 31.78125 56 36.171875 55.265625 
Q 40.578125 54.546875 44.28125 53.078125 
z
" id="DejaVuSans-115"/>
      <path d="M 9.421875 54.6875 
L 18.40625 54.6875 
L 18.40625 0 
L 9.421875 0 
z
M 9.421875 75.984375 
L 18.40625 75.984375 
L 18.40625 64.59375 
L 9.421875 64.59375 
z
" id="DejaVuSans-105"/>
      <path d="M 54.890625 33.015625 
L 54.890625 0 
L 45.90625 0 
L 45.90625 32.71875 
Q 45.90625 40.484375 42.875 44.328125 
Q 39.84375 48.1875 33.796875 48.1875 
Q 26.515625 48.1875 22.3125 43.546875 
Q 18.109375 38.921875 18.109375 30.90625 
L 18.109375 0 
L 9.078125 0 
L 9.078125 54.6875 
L 18.109375 54.6875 
L 18.109375 46.1875 
Q 21.34375 51.125 25.703125 53.5625 
Q 30.078125 56 35.796875 56 
Q 45.21875 56 50.046875 50.171875 
Q 54.890625 44.34375 54.890625 33.015625 
z
" id="DejaVuSans-110"/>
      <path d="M 9.125 54.6875 
L 61.53125 54.6875 
L 59.765625 45.703125 
L 52.875 45.703125 
L 46.34375 12.109375 
Q 45.65625 8.59375 46.578125 7.03125 
Q 47.46875 5.515625 50.140625 5.515625 
Q 50.875 5.515625 51.953125 5.671875 
Q 53.078125 5.765625 53.421875 5.8125 
L 52.15625 -0.6875 
Q 50.34375 -1.3125 48.484375 -1.609375 
Q 46.578125 -1.90625 44.78125 -1.90625 
Q 38.921875 -1.90625 37.3125 1.265625 
Q 35.6875 4.5 37.359375 13.09375 
L 43.703125 45.703125 
L 23.53125 45.703125 
L 14.65625 0 
L 5.46875 0 
L 14.359375 45.703125 
L 7.375 45.703125 
z
" id="DejaVuSans-Oblique-960"/>
      <path d="M 10.6875 40.921875 
L 21 40.921875 
L 21 28.515625 
L 10.6875 28.515625 
z
" id="DejaVuSans-8901"/>
      <path d="M 46 62.703125 
L 46 35.5 
L 73.1875 35.5 
L 73.1875 27.203125 
L 46 27.203125 
L 46 0 
L 37.796875 0 
L 37.796875 27.203125 
L 10.59375 27.203125 
L 10.59375 35.5 
L 37.796875 35.5 
L 37.796875 62.703125 
z
" id="DejaVuSans-43"/>
     </defs>
     <use transform="translate(0 0.640625)" xlink:href="#DejaVuSans-102"/>
     <use transform="translate(35.205078 0.640625)" xlink:href="#DejaVuSans-40"/>
     <use transform="translate(74.21875 0.640625)" xlink:href="#DejaVuSans-Oblique-120"/>
     <use transform="translate(133.398438 0.640625)" xlink:href="#DejaVuSans-41"/>
     <use transform="translate(172.412109 0.640625)" xlink:href="#DejaVuSans-8796"/>
     <use transform="translate(256.201172 0.640625)" xlink:href="#DejaVuSans-Oblique-120"/>
     <use transform="translate(315.380859 0.640625)" xlink:href="#DejaVuSans-115"/>
     <use transform="translate(367.480469 0.640625)" xlink:href="#DejaVuSans-105"/>
     <use transform="translate(395.263672 0.640625)" xlink:href="#DejaVuSans-110"/>
     <use transform="translate(458.642578 0.640625)" xlink:href="#DejaVuSans-40"/>
     <use transform="translate(497.65625 0.640625)" xlink:href="#DejaVuSans-49"/>
     <use transform="translate(561.279297 0.640625)" xlink:href="#DejaVuSans-48"/>
     <use transform="translate(624.902344 0.640625)" xlink:href="#DejaVuSans-Oblique-960"/>
     <use transform="translate(704.589844 0.640625)" xlink:href="#DejaVuSans-8901"/>
     <use transform="translate(755.859375 0.640625)" xlink:href="#DejaVuSans-Oblique-120"/>
     <use transform="translate(815.039062 0.640625)" xlink:href="#DejaVuSans-41"/>
     <use transform="translate(873.535156 0.640625)" xlink:href="#DejaVuSans-43"/>
     <use transform="translate(976.806641 0.640625)" xlink:href="#DejaVuSans-50"/>
     <use transform="translate(1040.429688 0.640625)" xlink:href="#DejaVuSans-46"/>
     <use transform="translate(1072.216797 0.640625)" xlink:href="#DejaVuSans-48"/>
    </g>
   </g>
  </g>
 </g>
 <defs>
  <clipPath id="p13faacc7d7">
   <rect height="343.728" width="594.828" x="95.94" y="53.568"/>
  </clipPath>
 </defs>
</svg>
