<?xml version="1.0" encoding="utf-8" standalone="no"?>
<!DOCTYPE svg PUBLIC "-//W3C//DTD SVG 1.1//EN"
  "http://www.w3.org/Graphics/SVG/1.1/DTD/svg11.dtd">
<!-- Created with matplotlib (https://matplotlib.org/) -->
<svg height="538.56pt" version="1.1" viewBox="0 0 970.56 538.56" width="970.56pt" xmlns="http://www.w3.org/2000/svg" xmlns:xlink="http://www.w3.org/1999/xlink">
 <metadata>
  <rdf:RDF xmlns:cc="http://creativecommons.org/ns#" xmlns:dc="http://purl.org/dc/elements/1.1/" xmlns:rdf="http://www.w3.org/1999/02/22-rdf-syntax-ns#">
   <cc:Work>
    <dc:type rdf:resource="http://purl.org/dc/dcmitype/StillImage"/>
    <dc:date>2020-11-25T18:16:28.712229</dc:date>
    <dc:format>image/svg+xml</dc:format>
    <dc:creator>
     <cc:Agent>
      <dc:title>Matplotlib v3.3.2, https://matplotlib.org/</dc:title>
     </cc:Agent>
    </dc:creator>
   </cc:Work>
  </rdf:RDF>
 </metadata>
 <defs>
  <style type="text/css">*{stroke-linecap:butt;stroke-linejoin:round;}</style>
 </defs>
 <g id="figure_1">
  <g id="patch_1">
   <path d="M 0 538.56 
L 970.56 538.56 
L 970.56 0 
L 0 0 
z
" style="fill:#ffffff;"/>
  </g>
  <g id="axes_1">
   <g id="patch_2">
    <path d="M 121.32 479.3184 
L 873.504 479.3184 
L 873.504 64.6272 
L 121.32 64.6272 
z
" style="fill:#ffffff;"/>
   </g>
   <g id="PathCollection_1">
    <defs>
     <path d="M 0 1.414214 
C 0.375054 1.414214 0.734797 1.265203 1 1 
C 1.265203 0.734797 1.414214 0.375054 1.414214 0 
C 1.414214 -0.375054 1.265203 -0.734797 1 -1 
C 0.734797 -1.265203 0.375054 -1.414214 0 -1.414214 
C -0.375054 -1.414214 -0.734797 -1.265203 -1 -1 
C -1.265203 -0.734797 -1.414214 -0.375054 -1.414214 0 
C -1.414214 0.375054 -1.265203 0.734797 -1 1 
C -0.734797 1.265203 -0.375054 1.414214 0 1.414214 
z
" id="m0d6292031b" style="stroke:#ff0000;stroke-opacity:0.4;"/>
    </defs>
    <g clip-path="url(#p0af0fa9ee6)">
     <use style="fill:#ff0000;fill-opacity:0.4;stroke:#ff0000;stroke-opacity:0.4;" x="438.807581" xlink:href="#m0d6292031b" y="244.791667"/>
     <use style="fill:#ff0000;fill-opacity:0.4;stroke:#ff0000;stroke-opacity:0.4;" x="717.540396" xlink:href="#m0d6292031b" y="126.443678"/>
     <use style="fill:#ff0000;fill-opacity:0.4;stroke:#ff0000;stroke-opacity:0.4;" x="759.29169" xlink:href="#m0d6292031b" y="112.115063"/>
     <use style="fill:#ff0000;fill-opacity:0.4;stroke:#ff0000;stroke-opacity:0.4;" x="759.459198" xlink:href="#m0d6292031b" y="110.940182"/>
     <use style="fill:#ff0000;fill-opacity:0.4;stroke:#ff0000;stroke-opacity:0.4;" x="759.459198" xlink:href="#m0d6292031b" y="110.940182"/>
     <use style="fill:#ff0000;fill-opacity:0.4;stroke:#ff0000;stroke-opacity:0.4;" x="759.459198" xlink:href="#m0d6292031b" y="110.940182"/>
     <use style="fill:#ff0000;fill-opacity:0.4;stroke:#ff0000;stroke-opacity:0.4;" x="760.79926" xlink:href="#m0d6292031b" y="104.531082"/>
     <use style="fill:#ff0000;fill-opacity:0.4;stroke:#ff0000;stroke-opacity:0.4;" x="760.79926" xlink:href="#m0d6292031b" y="104.531082"/>
     <use style="fill:#ff0000;fill-opacity:0.4;stroke:#ff0000;stroke-opacity:0.4;" x="761.134275" xlink:href="#m0d6292031b" y="103.777265"/>
     <use style="fill:#ff0000;fill-opacity:0.4;stroke:#ff0000;stroke-opacity:0.4;" x="761.134275" xlink:href="#m0d6292031b" y="103.777265"/>
     <use style="fill:#ff0000;fill-opacity:0.4;stroke:#ff0000;stroke-opacity:0.4;" x="804.016246" xlink:href="#m0d6292031b" y="103.074902"/>
     <use style="fill:#ff0000;fill-opacity:0.4;stroke:#ff0000;stroke-opacity:0.4;" x="804.058123" xlink:href="#m0d6292031b" y="102.604999"/>
     <use style="fill:#ff0000;fill-opacity:0.4;stroke:#ff0000;stroke-opacity:0.4;" x="804.058123" xlink:href="#m0d6292031b" y="102.604999"/>
     <use style="fill:#ff0000;fill-opacity:0.4;stroke:#ff0000;stroke-opacity:0.4;" x="804.058123" xlink:href="#m0d6292031b" y="102.604999"/>
     <use style="fill:#ff0000;fill-opacity:0.4;stroke:#ff0000;stroke-opacity:0.4;" x="804.058123" xlink:href="#m0d6292031b" y="102.604999"/>
     <use style="fill:#ff0000;fill-opacity:0.4;stroke:#ff0000;stroke-opacity:0.4;" x="804.058123" xlink:href="#m0d6292031b" y="102.604999"/>
     <use style="fill:#ff0000;fill-opacity:0.4;stroke:#ff0000;stroke-opacity:0.4;" x="804.058123" xlink:href="#m0d6292031b" y="102.604999"/>
     <use style="fill:#ff0000;fill-opacity:0.4;stroke:#ff0000;stroke-opacity:0.4;" x="804.079062" xlink:href="#m0d6292031b" y="102.372053"/>
     <use style="fill:#ff0000;fill-opacity:0.4;stroke:#ff0000;stroke-opacity:0.4;" x="809.41837" xlink:href="#m0d6292031b" y="90.33842"/>
     <use style="fill:#ff0000;fill-opacity:0.4;stroke:#ff0000;stroke-opacity:0.4;" x="806.738247" xlink:href="#m0d6292031b" y="84.257094"/>
     <use style="fill:#ff0000;fill-opacity:0.4;stroke:#ff0000;stroke-opacity:0.4;" x="806.738247" xlink:href="#m0d6292031b" y="84.257094"/>
     <use style="fill:#ff0000;fill-opacity:0.4;stroke:#ff0000;stroke-opacity:0.4;" x="806.738247" xlink:href="#m0d6292031b" y="84.257094"/>
     <use style="fill:#ff0000;fill-opacity:0.4;stroke:#ff0000;stroke-opacity:0.4;" x="806.738247" xlink:href="#m0d6292031b" y="84.257094"/>
     <use style="fill:#ff0000;fill-opacity:0.4;stroke:#ff0000;stroke-opacity:0.4;" x="806.738247" xlink:href="#m0d6292031b" y="84.257094"/>
     <use style="fill:#ff0000;fill-opacity:0.4;stroke:#ff0000;stroke-opacity:0.4;" x="806.738247" xlink:href="#m0d6292031b" y="84.257094"/>
     <use style="fill:#ff0000;fill-opacity:0.4;stroke:#ff0000;stroke-opacity:0.4;" x="806.738247" xlink:href="#m0d6292031b" y="84.257094"/>
     <use style="fill:#ff0000;fill-opacity:0.4;stroke:#ff0000;stroke-opacity:0.4;" x="806.738247" xlink:href="#m0d6292031b" y="84.257094"/>
     <use style="fill:#ff0000;fill-opacity:0.4;stroke:#ff0000;stroke-opacity:0.4;" x="806.738247" xlink:href="#m0d6292031b" y="84.257094"/>
     <use style="fill:#ff0000;fill-opacity:0.4;stroke:#ff0000;stroke-opacity:0.4;" x="806.759185" xlink:href="#m0d6292031b" y="84.208419"/>
    </g>
   </g>
   <g id="matplotlib.axis_1">
    <g id="xtick_1">
     <g id="line2d_1">
      <defs>
       <path d="M 0 0 
L 0 3.5 
" id="ma0083d7ee1" style="stroke:#000000;stroke-width:0.8;"/>
      </defs>
      <g>
       <use style="stroke:#000000;stroke-width:0.8;" x="155.510182" xlink:href="#ma0083d7ee1" y="479.3184"/>
      </g>
     </g>
     <g id="text_1">
      <!-- −1.0 -->
      <g transform="translate(143.368776 493.916838)scale(0.1 -0.1)">
       <defs>
        <path d="M 10.59375 35.5 
L 73.1875 35.5 
L 73.1875 27.203125 
L 10.59375 27.203125 
z
" id="DejaVuSans-8722"/>
        <path d="M 12.40625 8.296875 
L 28.515625 8.296875 
L 28.515625 63.921875 
L 10.984375 60.40625 
L 10.984375 69.390625 
L 28.421875 72.90625 
L 38.28125 72.90625 
L 38.28125 8.296875 
L 54.390625 8.296875 
L 54.390625 0 
L 12.40625 0 
z
" id="DejaVuSans-49"/>
        <path d="M 10.6875 12.40625 
L 21 12.40625 
L 21 0 
L 10.6875 0 
z
" id="DejaVuSans-46"/>
        <path d="M 31.78125 66.40625 
Q 24.171875 66.40625 20.328125 58.90625 
Q 16.5 51.421875 16.5 36.375 
Q 16.5 21.390625 20.328125 13.890625 
Q 24.171875 6.390625 31.78125 6.390625 
Q 39.453125 6.390625 43.28125 13.890625 
Q 47.125 21.390625 47.125 36.375 
Q 47.125 51.421875 43.28125 58.90625 
Q 39.453125 66.40625 31.78125 66.40625 
z
M 31.78125 74.21875 
Q 44.046875 74.21875 50.515625 64.515625 
Q 56.984375 54.828125 56.984375 36.375 
Q 56.984375 17.96875 50.515625 8.265625 
Q 44.046875 -1.421875 31.78125 -1.421875 
Q 19.53125 -1.421875 13.0625 8.265625 
Q 6.59375 17.96875 6.59375 36.375 
Q 6.59375 54.828125 13.0625 64.515625 
Q 19.53125 74.21875 31.78125 74.21875 
z
" id="DejaVuSans-48"/>
       </defs>
       <use xlink:href="#DejaVuSans-8722"/>
       <use x="83.789062" xlink:href="#DejaVuSans-49"/>
       <use x="147.412109" xlink:href="#DejaVuSans-46"/>
       <use x="179.199219" xlink:href="#DejaVuSans-48"/>
      </g>
     </g>
    </g>
    <g id="xtick_2">
     <g id="line2d_2">
      <g>
       <use style="stroke:#000000;stroke-width:0.8;" x="269.858616" xlink:href="#ma0083d7ee1" y="479.3184"/>
      </g>
     </g>
     <g id="text_2">
      <!-- −0.5 -->
      <g transform="translate(257.71721 493.916838)scale(0.1 -0.1)">
       <defs>
        <path d="M 10.796875 72.90625 
L 49.515625 72.90625 
L 49.515625 64.59375 
L 19.828125 64.59375 
L 19.828125 46.734375 
Q 21.96875 47.46875 24.109375 47.828125 
Q 26.265625 48.1875 28.421875 48.1875 
Q 40.625 48.1875 47.75 41.5 
Q 54.890625 34.8125 54.890625 23.390625 
Q 54.890625 11.625 47.5625 5.09375 
Q 40.234375 -1.421875 26.90625 -1.421875 
Q 22.3125 -1.421875 17.546875 -0.640625 
Q 12.796875 0.140625 7.71875 1.703125 
L 7.71875 11.625 
Q 12.109375 9.234375 16.796875 8.0625 
Q 21.484375 6.890625 26.703125 6.890625 
Q 35.15625 6.890625 40.078125 11.328125 
Q 45.015625 15.765625 45.015625 23.390625 
Q 45.015625 31 40.078125 35.4375 
Q 35.15625 39.890625 26.703125 39.890625 
Q 22.75 39.890625 18.8125 39.015625 
Q 14.890625 38.140625 10.796875 36.28125 
z
" id="DejaVuSans-53"/>
       </defs>
       <use xlink:href="#DejaVuSans-8722"/>
       <use x="83.789062" xlink:href="#DejaVuSans-48"/>
       <use x="147.412109" xlink:href="#DejaVuSans-46"/>
       <use x="179.199219" xlink:href="#DejaVuSans-53"/>
      </g>
     </g>
    </g>
    <g id="xtick_3">
     <g id="line2d_3">
      <g>
       <use style="stroke:#000000;stroke-width:0.8;" x="384.20705" xlink:href="#ma0083d7ee1" y="479.3184"/>
      </g>
     </g>
     <g id="text_3">
      <!-- 0.0 -->
      <g transform="translate(376.255488 493.916838)scale(0.1 -0.1)">
       <use xlink:href="#DejaVuSans-48"/>
       <use x="63.623047" xlink:href="#DejaVuSans-46"/>
       <use x="95.410156" xlink:href="#DejaVuSans-48"/>
      </g>
     </g>
    </g>
    <g id="xtick_4">
     <g id="line2d_4">
      <g>
       <use style="stroke:#000000;stroke-width:0.8;" x="498.555484" xlink:href="#ma0083d7ee1" y="479.3184"/>
      </g>
     </g>
     <g id="text_4">
      <!-- 0.5 -->
      <g transform="translate(490.603922 493.916838)scale(0.1 -0.1)">
       <use xlink:href="#DejaVuSans-48"/>
       <use x="63.623047" xlink:href="#DejaVuSans-46"/>
       <use x="95.410156" xlink:href="#DejaVuSans-53"/>
      </g>
     </g>
    </g>
    <g id="xtick_5">
     <g id="line2d_5">
      <g>
       <use style="stroke:#000000;stroke-width:0.8;" x="612.903919" xlink:href="#ma0083d7ee1" y="479.3184"/>
      </g>
     </g>
     <g id="text_5">
      <!-- 1.0 -->
      <g transform="translate(604.952356 493.916838)scale(0.1 -0.1)">
       <use xlink:href="#DejaVuSans-49"/>
       <use x="63.623047" xlink:href="#DejaVuSans-46"/>
       <use x="95.410156" xlink:href="#DejaVuSans-48"/>
      </g>
     </g>
    </g>
    <g id="xtick_6">
     <g id="line2d_6">
      <g>
       <use style="stroke:#000000;stroke-width:0.8;" x="727.252353" xlink:href="#ma0083d7ee1" y="479.3184"/>
      </g>
     </g>
     <g id="text_6">
      <!-- 1.5 -->
      <g transform="translate(719.30079 493.916838)scale(0.1 -0.1)">
       <use xlink:href="#DejaVuSans-49"/>
       <use x="63.623047" xlink:href="#DejaVuSans-46"/>
       <use x="95.410156" xlink:href="#DejaVuSans-53"/>
      </g>
     </g>
    </g>
    <g id="xtick_7">
     <g id="line2d_7">
      <g>
       <use style="stroke:#000000;stroke-width:0.8;" x="841.600787" xlink:href="#ma0083d7ee1" y="479.3184"/>
      </g>
     </g>
     <g id="text_7">
      <!-- 2.0 -->
      <g transform="translate(833.649224 493.916838)scale(0.1 -0.1)">
       <defs>
        <path d="M 19.1875 8.296875 
L 53.609375 8.296875 
L 53.609375 0 
L 7.328125 0 
L 7.328125 8.296875 
Q 12.9375 14.109375 22.625 23.890625 
Q 32.328125 33.6875 34.8125 36.53125 
Q 39.546875 41.84375 41.421875 45.53125 
Q 43.3125 49.21875 43.3125 52.78125 
Q 43.3125 58.59375 39.234375 62.25 
Q 35.15625 65.921875 28.609375 65.921875 
Q 23.96875 65.921875 18.8125 64.3125 
Q 13.671875 62.703125 7.8125 59.421875 
L 7.8125 69.390625 
Q 13.765625 71.78125 18.9375 73 
Q 24.125 74.21875 28.421875 74.21875 
Q 39.75 74.21875 46.484375 68.546875 
Q 53.21875 62.890625 53.21875 53.421875 
Q 53.21875 48.921875 51.53125 44.890625 
Q 49.859375 40.875 45.40625 35.40625 
Q 44.1875 33.984375 37.640625 27.21875 
Q 31.109375 20.453125 19.1875 8.296875 
z
" id="DejaVuSans-50"/>
       </defs>
       <use xlink:href="#DejaVuSans-50"/>
       <use x="63.623047" xlink:href="#DejaVuSans-46"/>
       <use x="95.410156" xlink:href="#DejaVuSans-48"/>
      </g>
     </g>
    </g>
    <g id="text_8">
     <!-- x -->
     <g transform="translate(494.452625 507.594963)scale(0.1 -0.1)">
      <defs>
       <path d="M 54.890625 54.6875 
L 35.109375 28.078125 
L 55.90625 0 
L 45.3125 0 
L 29.390625 21.484375 
L 13.484375 0 
L 2.875 0 
L 24.125 28.609375 
L 4.6875 54.6875 
L 15.28125 54.6875 
L 29.78125 35.203125 
L 44.28125 54.6875 
z
" id="DejaVuSans-120"/>
      </defs>
      <use xlink:href="#DejaVuSans-120"/>
     </g>
    </g>
   </g>
   <g id="matplotlib.axis_2">
    <g id="ytick_1">
     <g id="line2d_8">
      <defs>
       <path d="M 0 0 
L -3.5 0 
" id="ma00a8c1549" style="stroke:#000000;stroke-width:0.8;"/>
      </defs>
      <g>
       <use style="stroke:#000000;stroke-width:0.8;" x="121.32" xlink:href="#ma00a8c1549" y="465.429221"/>
      </g>
     </g>
     <g id="text_9">
      <!-- 0.0 -->
      <g transform="translate(98.416875 469.22844)scale(0.1 -0.1)">
       <use xlink:href="#DejaVuSans-48"/>
       <use x="63.623047" xlink:href="#DejaVuSans-46"/>
       <use x="95.410156" xlink:href="#DejaVuSans-48"/>
      </g>
     </g>
    </g>
    <g id="ytick_2">
     <g id="line2d_9">
      <g>
       <use style="stroke:#000000;stroke-width:0.8;" x="121.32" xlink:href="#ma00a8c1549" y="415.825011"/>
      </g>
     </g>
     <g id="text_10">
      <!-- 0.5 -->
      <g transform="translate(98.416875 419.624229)scale(0.1 -0.1)">
       <use xlink:href="#DejaVuSans-48"/>
       <use x="63.623047" xlink:href="#DejaVuSans-46"/>
       <use x="95.410156" xlink:href="#DejaVuSans-53"/>
      </g>
     </g>
    </g>
    <g id="ytick_3">
     <g id="line2d_10">
      <g>
       <use style="stroke:#000000;stroke-width:0.8;" x="121.32" xlink:href="#ma00a8c1549" y="366.2208"/>
      </g>
     </g>
     <g id="text_11">
      <!-- 1.0 -->
      <g transform="translate(98.416875 370.020019)scale(0.1 -0.1)">
       <use xlink:href="#DejaVuSans-49"/>
       <use x="63.623047" xlink:href="#DejaVuSans-46"/>
       <use x="95.410156" xlink:href="#DejaVuSans-48"/>
      </g>
     </g>
    </g>
    <g id="ytick_4">
     <g id="line2d_11">
      <g>
       <use style="stroke:#000000;stroke-width:0.8;" x="121.32" xlink:href="#ma00a8c1549" y="316.616589"/>
      </g>
     </g>
     <g id="text_12">
      <!-- 1.5 -->
      <g transform="translate(98.416875 320.415808)scale(0.1 -0.1)">
       <use xlink:href="#DejaVuSans-49"/>
       <use x="63.623047" xlink:href="#DejaVuSans-46"/>
       <use x="95.410156" xlink:href="#DejaVuSans-53"/>
      </g>
     </g>
    </g>
    <g id="ytick_5">
     <g id="line2d_12">
      <g>
       <use style="stroke:#000000;stroke-width:0.8;" x="121.32" xlink:href="#ma00a8c1549" y="267.012379"/>
      </g>
     </g>
     <g id="text_13">
      <!-- 2.0 -->
      <g transform="translate(98.416875 270.811598)scale(0.1 -0.1)">
       <use xlink:href="#DejaVuSans-50"/>
       <use x="63.623047" xlink:href="#DejaVuSans-46"/>
       <use x="95.410156" xlink:href="#DejaVuSans-48"/>
      </g>
     </g>
    </g>
    <g id="ytick_6">
     <g id="line2d_13">
      <g>
       <use style="stroke:#000000;stroke-width:0.8;" x="121.32" xlink:href="#ma00a8c1549" y="217.408168"/>
      </g>
     </g>
     <g id="text_14">
      <!-- 2.5 -->
      <g transform="translate(98.416875 221.207387)scale(0.1 -0.1)">
       <use xlink:href="#DejaVuSans-50"/>
       <use x="63.623047" xlink:href="#DejaVuSans-46"/>
       <use x="95.410156" xlink:href="#DejaVuSans-53"/>
      </g>
     </g>
    </g>
    <g id="ytick_7">
     <g id="line2d_14">
      <g>
       <use style="stroke:#000000;stroke-width:0.8;" x="121.32" xlink:href="#ma00a8c1549" y="167.803958"/>
      </g>
     </g>
     <g id="text_15">
      <!-- 3.0 -->
      <g transform="translate(98.416875 171.603177)scale(0.1 -0.1)">
       <defs>
        <path d="M 40.578125 39.3125 
Q 47.65625 37.796875 51.625 33 
Q 55.609375 28.21875 55.609375 21.1875 
Q 55.609375 10.40625 48.1875 4.484375 
Q 40.765625 -1.421875 27.09375 -1.421875 
Q 22.515625 -1.421875 17.65625 -0.515625 
Q 12.796875 0.390625 7.625 2.203125 
L 7.625 11.71875 
Q 11.71875 9.328125 16.59375 8.109375 
Q 21.484375 6.890625 26.8125 6.890625 
Q 36.078125 6.890625 40.9375 10.546875 
Q 45.796875 14.203125 45.796875 21.1875 
Q 45.796875 27.640625 41.28125 31.265625 
Q 36.765625 34.90625 28.71875 34.90625 
L 20.21875 34.90625 
L 20.21875 43.015625 
L 29.109375 43.015625 
Q 36.375 43.015625 40.234375 45.921875 
Q 44.09375 48.828125 44.09375 54.296875 
Q 44.09375 59.90625 40.109375 62.90625 
Q 36.140625 65.921875 28.71875 65.921875 
Q 24.65625 65.921875 20.015625 65.03125 
Q 15.375 64.15625 9.8125 62.3125 
L 9.8125 71.09375 
Q 15.4375 72.65625 20.34375 73.4375 
Q 25.25 74.21875 29.59375 74.21875 
Q 40.828125 74.21875 47.359375 69.109375 
Q 53.90625 64.015625 53.90625 55.328125 
Q 53.90625 49.265625 50.4375 45.09375 
Q 46.96875 40.921875 40.578125 39.3125 
z
" id="DejaVuSans-51"/>
       </defs>
       <use xlink:href="#DejaVuSans-51"/>
       <use x="63.623047" xlink:href="#DejaVuSans-46"/>
       <use x="95.410156" xlink:href="#DejaVuSans-48"/>
      </g>
     </g>
    </g>
    <g id="ytick_8">
     <g id="line2d_15">
      <g>
       <use style="stroke:#000000;stroke-width:0.8;" x="121.32" xlink:href="#ma00a8c1549" y="118.199747"/>
      </g>
     </g>
     <g id="text_16">
      <!-- 3.5 -->
      <g transform="translate(98.416875 121.998966)scale(0.1 -0.1)">
       <use xlink:href="#DejaVuSans-51"/>
       <use x="63.623047" xlink:href="#DejaVuSans-46"/>
       <use x="95.410156" xlink:href="#DejaVuSans-53"/>
      </g>
     </g>
    </g>
    <g id="ytick_9">
     <g id="line2d_16">
      <g>
       <use style="stroke:#000000;stroke-width:0.8;" x="121.32" xlink:href="#ma00a8c1549" y="68.595537"/>
      </g>
     </g>
     <g id="text_17">
      <!-- 4.0 -->
      <g transform="translate(98.416875 72.394756)scale(0.1 -0.1)">
       <defs>
        <path d="M 37.796875 64.3125 
L 12.890625 25.390625 
L 37.796875 25.390625 
z
M 35.203125 72.90625 
L 47.609375 72.90625 
L 47.609375 25.390625 
L 58.015625 25.390625 
L 58.015625 17.1875 
L 47.609375 17.1875 
L 47.609375 0 
L 37.796875 0 
L 37.796875 17.1875 
L 4.890625 17.1875 
L 4.890625 26.703125 
z
" id="DejaVuSans-52"/>
       </defs>
       <use xlink:href="#DejaVuSans-52"/>
       <use x="63.623047" xlink:href="#DejaVuSans-46"/>
       <use x="95.410156" xlink:href="#DejaVuSans-48"/>
      </g>
     </g>
    </g>
    <g id="text_18">
     <!-- y -->
     <g transform="translate(92.337187 274.932175)rotate(-90)scale(0.1 -0.1)">
      <defs>
       <path d="M 32.171875 -5.078125 
Q 28.375 -14.84375 24.75 -17.8125 
Q 21.140625 -20.796875 15.09375 -20.796875 
L 7.90625 -20.796875 
L 7.90625 -13.28125 
L 13.1875 -13.28125 
Q 16.890625 -13.28125 18.9375 -11.515625 
Q 21 -9.765625 23.484375 -3.21875 
L 25.09375 0.875 
L 2.984375 54.6875 
L 12.5 54.6875 
L 29.59375 11.921875 
L 46.6875 54.6875 
L 56.203125 54.6875 
z
" id="DejaVuSans-121"/>
      </defs>
      <use xlink:href="#DejaVuSans-121"/>
     </g>
    </g>
   </g>
   <g id="line2d_17">
    <path clip-path="url(#p0af0fa9ee6)" d="M 155.510182 267.012379 
L 157.797151 297.362896 
L 160.084119 324.159361 
L 162.371088 344.865839 
L 164.658057 357.591082 
L 166.945025 361.260379 
L 169.231994 355.704025 
L 171.518963 341.655387 
L 173.805931 320.660566 
L 176.0929 294.910329 
L 180.666837 239.727571 
L 182.953806 215.696722 
L 185.240775 197.185049 
L 187.527743 185.868958 
L 189.814712 182.685221 
L 192.101681 187.756014 
L 194.388649 200.395501 
L 196.675618 219.195517 
L 198.962587 242.180138 
L 203.536524 291.231479 
L 205.823493 312.496711 
L 208.110462 328.813579 
L 210.39743 338.720519 
L 212.684399 341.418695 
L 214.971368 336.833462 
L 217.258336 325.603127 
L 219.545305 308.997917 
L 221.832274 288.778911 
L 226.406211 245.858988 
L 228.69318 227.359371 
L 230.980148 213.237309 
L 233.267117 204.739521 
L 235.554086 202.526905 
L 237.841054 206.626577 
L 240.128023 216.447761 
L 242.414992 230.858166 
L 244.70196 248.311555 
L 249.275898 285.100061 
L 251.562867 300.834062 
L 253.849835 312.761319 
L 256.136804 319.849956 
L 258.423773 321.577011 
L 260.710741 317.962899 
L 262.99771 309.550867 
L 265.284679 297.335267 
L 267.571647 282.647494 
L 272.145585 251.990406 
L 274.432553 239.02202 
L 276.719522 229.289569 
L 279.006491 223.610084 
L 281.293459 222.368589 
L 283.580428 225.49714 
L 285.867397 232.500021 
L 288.154365 242.520815 
L 290.441334 254.442973 
L 295.015272 278.968643 
L 297.30224 289.171413 
L 299.589209 296.709059 
L 301.876178 300.979392 
L 304.163146 301.735326 
L 306.450115 299.092336 
L 308.737084 293.498607 
L 311.024052 285.672618 
L 317.884958 258.121823 
L 320.171927 250.68467 
L 322.458896 245.341828 
L 324.745864 242.480647 
L 327.032833 242.210274 
L 329.319802 244.367703 
L 331.60677 248.55228 
L 333.893739 254.183465 
L 338.467676 267.012379 
L 340.754645 272.837226 
L 343.041614 277.508763 
L 345.328583 280.6568 
L 347.615551 282.108829 
L 349.90252 281.893642 
L 352.189489 280.221773 
L 354.476457 277.446348 
L 361.337363 267.012379 
L 363.624332 264.253241 
L 365.911301 262.347319 
L 368.198269 261.394088 
L 370.485238 261.35121 
L 372.772207 262.051958 
L 375.059175 263.238266 
L 379.633113 265.846114 
L 381.920081 266.705808 
L 384.20705 267.012379 
L 386.494019 266.705808 
L 388.780988 265.846114 
L 395.641894 262.051958 
L 397.928862 261.35121 
L 400.215831 261.394088 
L 402.5028 262.347319 
L 404.789768 264.253241 
L 407.076737 267.012379 
L 409.363706 270.384659 
L 413.937643 277.446348 
L 416.224612 280.221773 
L 418.51158 281.893642 
L 420.798549 282.108829 
L 423.085518 280.6568 
L 425.372486 277.508763 
L 427.659455 272.837226 
L 429.946424 267.012379 
L 434.520361 254.183465 
L 436.80733 248.55228 
L 439.094299 244.367703 
L 441.381267 242.210274 
L 443.668236 242.480647 
L 445.955205 245.341828 
L 448.242173 250.68467 
L 450.529142 258.121823 
L 452.816111 267.012379 
L 457.390048 285.672618 
L 459.677017 293.498607 
L 461.963985 299.092336 
L 464.250954 301.735326 
L 466.537923 300.979392 
L 468.824891 296.709059 
L 471.11186 289.171413 
L 473.398829 278.968643 
L 475.685798 267.012379 
L 477.972766 254.442973 
L 480.259735 242.520815 
L 482.546704 232.500021 
L 484.833672 225.49714 
L 487.120641 222.368589 
L 489.40761 223.610084 
L 491.694578 229.289569 
L 493.981547 239.02202 
L 496.268516 251.990406 
L 503.129422 297.335267 
L 505.41639 309.550867 
L 507.703359 317.962899 
L 509.990328 321.577011 
L 512.277296 319.849956 
L 514.564265 312.761319 
L 516.851234 300.834062 
L 519.138202 285.100061 
L 525.999109 230.858166 
L 528.286077 216.447761 
L 530.573046 206.626577 
L 532.860015 202.526905 
L 535.146983 204.739521 
L 537.433952 213.237309 
L 539.720921 227.359371 
L 542.007889 245.858988 
L 548.868795 308.997917 
L 551.155764 325.603127 
L 553.442733 336.833462 
L 555.729701 341.418695 
L 558.01667 338.720519 
L 560.303639 328.813579 
L 562.590607 312.496711 
L 564.877576 291.231479 
L 571.738482 219.195517 
L 574.025451 200.395501 
L 576.31242 187.756014 
L 578.599388 182.685221 
L 580.886357 185.868958 
L 583.173326 197.185049 
L 585.460294 215.696722 
L 587.747263 239.727571 
L 594.608169 320.660566 
L 596.895138 341.655387 
L 599.182106 355.704025 
L 601.469075 361.260379 
L 603.756044 357.591082 
L 606.043012 344.865839 
L 608.329981 324.159361 
L 610.61695 297.362896 
L 617.477856 207.532867 
L 619.764825 184.343241 
L 622.051793 168.885451 
L 624.338762 162.843537 
L 626.625731 166.998395 
L 628.912699 181.132789 
L 631.199668 204.034072 
L 633.486637 233.596153 
L 640.347543 332.323215 
L 642.634511 357.707646 
L 644.92148 374.574588 
L 647.208449 381.102063 
L 649.495417 376.461645 
L 651.782386 360.918098 
L 654.069355 335.82201 
L 656.356324 303.494314 
L 660.930261 229.917302 
L 663.21723 195.870218 
L 665.504198 168.290982 
L 667.791167 150.014888 
L 670.078136 143.001853 
L 672.365104 148.127832 
L 674.652073 165.08053 
L 676.939042 192.371423 
L 679.22601 227.464735 
L 683.799948 307.173164 
L 686.086916 343.985865 
L 688.373885 373.759906 
L 690.660854 393.445151 
L 692.947822 400.943747 
L 695.234791 395.332208 
L 697.52176 376.970358 
L 699.808728 347.48466 
L 702.095697 309.625731 
L 706.669635 223.785885 
L 708.956603 184.207568 
L 711.243572 152.238722 
L 713.530541 131.144325 
L 715.817509 123.160168 
L 718.104478 129.257269 
L 720.391447 149.02827 
L 722.678415 180.708774 
L 724.965384 221.333318 
L 729.539321 313.304582 
L 731.82629 355.648514 
L 734.113259 389.812166 
L 736.400227 412.315715 
L 738.687196 420.785432 
L 740.974165 414.202771 
L 743.261133 393.022618 
L 745.548102 359.147309 
L 747.835071 315.757149 
L 752.409008 217.654467 
L 754.695977 172.544919 
L 756.982946 136.186462 
L 759.269914 112.273762 
L 761.556883 103.318484 
L 763.843852 110.386706 
L 766.13082 132.97601 
L 768.417789 169.046124 
L 770.704758 215.2019 
L 775.278695 319.436 
L 777.565664 367.311163 
L 779.852632 405.864426 
L 782.139601 431.186278 
L 784.42657 440.627116 
L 786.713538 433.073334 
L 789.000507 409.074877 
L 791.287476 370.809958 
L 793.574445 321.888567 
L 798.148382 211.52305 
L 800.435351 160.88227 
L 802.722319 120.134202 
L 805.009288 93.403199 
L 807.296257 83.4768 
L 809.583225 91.516142 
L 811.870194 116.923751 
L 814.157163 157.383475 
L 816.444131 209.070482 
L 821.018069 325.567417 
L 823.305037 378.973813 
L 825.592006 421.916685 
L 827.878975 450.056841 
L 830.165943 460.4688 
L 832.452912 451.943897 
L 834.739881 425.127137 
L 837.026849 382.472608 
L 839.313818 328.019984 
L 839.313818 328.019984 
" style="fill:none;stroke:#1f77b4;stroke-linecap:square;stroke-width:1.5;"/>
   </g>
   <g id="patch_3">
    <path d="M 121.32 479.3184 
L 121.32 64.6272 
" style="fill:none;stroke:#000000;stroke-linecap:square;stroke-linejoin:miter;stroke-width:0.8;"/>
   </g>
   <g id="patch_4">
    <path d="M 873.504 479.3184 
L 873.504 64.6272 
" style="fill:none;stroke:#000000;stroke-linecap:square;stroke-linejoin:miter;stroke-width:0.8;"/>
   </g>
   <g id="patch_5">
    <path d="M 121.32 479.3184 
L 873.504 479.3184 
" style="fill:none;stroke:#000000;stroke-linecap:square;stroke-linejoin:miter;stroke-width:0.8;"/>
   </g>
   <g id="patch_6">
    <path d="M 121.32 64.6272 
L 873.504 64.6272 
" style="fill:none;stroke:#000000;stroke-linecap:square;stroke-linejoin:miter;stroke-width:0.8;"/>
   </g>
   <g id="text_19">
    <!-- $\mathrm{f}(x)\triangleq x\sin{\left({10\pi\cdot x}\right)}+2.0$ -->
    <g transform="translate(429.252 58.6272)scale(0.12 -0.12)">
     <defs>
      <path d="M 37.109375 75.984375 
L 37.109375 68.5 
L 28.515625 68.5 
Q 23.6875 68.5 21.796875 66.546875 
Q 19.921875 64.59375 19.921875 59.515625 
L 19.921875 54.6875 
L 34.71875 54.6875 
L 34.71875 47.703125 
L 19.921875 47.703125 
L 19.921875 0 
L 10.890625 0 
L 10.890625 47.703125 
L 2.296875 47.703125 
L 2.296875 54.6875 
L 10.890625 54.6875 
L 10.890625 58.5 
Q 10.890625 67.625 15.140625 71.796875 
Q 19.390625 75.984375 28.609375 75.984375 
z
" id="DejaVuSans-102"/>
      <path d="M 31 75.875 
Q 24.46875 64.65625 21.28125 53.65625 
Q 18.109375 42.671875 18.109375 31.390625 
Q 18.109375 20.125 21.3125 9.0625 
Q 24.515625 -2 31 -13.1875 
L 23.1875 -13.1875 
Q 15.875 -1.703125 12.234375 9.375 
Q 8.59375 20.453125 8.59375 31.390625 
Q 8.59375 42.28125 12.203125 53.3125 
Q 15.828125 64.359375 23.1875 75.875 
z
" id="DejaVuSans-40"/>
      <path d="M 60.015625 54.6875 
L 34.90625 27.875 
L 50.296875 0 
L 39.984375 0 
L 28.421875 21.6875 
L 8.296875 0 
L -2.59375 0 
L 24.3125 28.8125 
L 10.015625 54.6875 
L 20.3125 54.6875 
L 30.8125 34.90625 
L 49.125 54.6875 
z
" id="DejaVuSans-Oblique-120"/>
      <path d="M 8.015625 75.875 
L 15.828125 75.875 
Q 23.140625 64.359375 26.78125 53.3125 
Q 30.421875 42.28125 30.421875 31.390625 
Q 30.421875 20.453125 26.78125 9.375 
Q 23.140625 -1.703125 15.828125 -13.1875 
L 8.015625 -13.1875 
Q 14.5 -2 17.703125 9.0625 
Q 20.90625 20.125 20.90625 31.390625 
Q 20.90625 42.671875 17.703125 53.65625 
Q 14.5 64.65625 8.015625 75.875 
z
" id="DejaVuSans-41"/>
      <path d="M 10.59375 45.40625 
L 73.1875 45.40625 
L 73.1875 37.203125 
L 10.59375 37.203125 
z
M 10.59375 25.484375 
L 73.1875 25.484375 
L 73.1875 17.1875 
L 10.59375 17.1875 
z
M 41.9375 76.5625 
L 33.84375 55.375 
L 50.140625 55.375 
z
M 39.265625 85.359375 
L 44.734375 85.359375 
L 58.84375 49.359375 
L 25.140625 49.359375 
z
" id="DejaVuSans-8796"/>
      <path d="M 44.28125 53.078125 
L 44.28125 44.578125 
Q 40.484375 46.53125 36.375 47.5 
Q 32.28125 48.484375 27.875 48.484375 
Q 21.1875 48.484375 17.84375 46.4375 
Q 14.5 44.390625 14.5 40.28125 
Q 14.5 37.15625 16.890625 35.375 
Q 19.28125 33.59375 26.515625 31.984375 
L 29.59375 31.296875 
Q 39.15625 29.25 43.1875 25.515625 
Q 47.21875 21.78125 47.21875 15.09375 
Q 47.21875 7.46875 41.1875 3.015625 
Q 35.15625 -1.421875 24.609375 -1.421875 
Q 20.21875 -1.421875 15.453125 -0.5625 
Q 10.6875 0.296875 5.421875 2 
L 5.421875 11.28125 
Q 10.40625 8.6875 15.234375 7.390625 
Q 20.0625 6.109375 24.8125 6.109375 
Q 31.15625 6.109375 34.5625 8.28125 
Q 37.984375 10.453125 37.984375 14.40625 
Q 37.984375 18.0625 35.515625 20.015625 
Q 33.0625 21.96875 24.703125 23.78125 
L 21.578125 24.515625 
Q 13.234375 26.265625 9.515625 29.90625 
Q 5.8125 33.546875 5.8125 39.890625 
Q 5.8125 47.609375 11.28125 51.796875 
Q 16.75 56 26.8125 56 
Q 31.78125 56 36.171875 55.265625 
Q 40.578125 54.546875 44.28125 53.078125 
z
" id="DejaVuSans-115"/>
      <path d="M 9.421875 54.6875 
L 18.40625 54.6875 
L 18.40625 0 
L 9.421875 0 
z
M 9.421875 75.984375 
L 18.40625 75.984375 
L 18.40625 64.59375 
L 9.421875 64.59375 
z
" id="DejaVuSans-105"/>
      <path d="M 54.890625 33.015625 
L 54.890625 0 
L 45.90625 0 
L 45.90625 32.71875 
Q 45.90625 40.484375 42.875 44.328125 
Q 39.84375 48.1875 33.796875 48.1875 
Q 26.515625 48.1875 22.3125 43.546875 
Q 18.109375 38.921875 18.109375 30.90625 
L 18.109375 0 
L 9.078125 0 
L 9.078125 54.6875 
L 18.109375 54.6875 
L 18.109375 46.1875 
Q 21.34375 51.125 25.703125 53.5625 
Q 30.078125 56 35.796875 56 
Q 45.21875 56 50.046875 50.171875 
Q 54.890625 44.34375 54.890625 33.015625 
z
" id="DejaVuSans-110"/>
      <path d="M 9.125 54.6875 
L 61.53125 54.6875 
L 59.765625 45.703125 
L 52.875 45.703125 
L 46.34375 12.109375 
Q 45.65625 8.59375 46.578125 7.03125 
Q 47.46875 5.515625 50.140625 5.515625 
Q 50.875 5.515625 51.953125 5.671875 
Q 53.078125 5.765625 53.421875 5.8125 
L 52.15625 -0.6875 
Q 50.34375 -1.3125 48.484375 -1.609375 
Q 46.578125 -1.90625 44.78125 -1.90625 
Q 38.921875 -1.90625 37.3125 1.265625 
Q 35.6875 4.5 37.359375 13.09375 
L 43.703125 45.703125 
L 23.53125 45.703125 
L 14.65625 0 
L 5.46875 0 
L 14.359375 45.703125 
L 7.375 45.703125 
z
" id="DejaVuSans-Oblique-960"/>
      <path d="M 10.6875 40.921875 
L 21 40.921875 
L 21 28.515625 
L 10.6875 28.515625 
z
" id="DejaVuSans-8901"/>
      <path d="M 46 62.703125 
L 46 35.5 
L 73.1875 35.5 
L 73.1875 27.203125 
L 46 27.203125 
L 46 0 
L 37.796875 0 
L 37.796875 27.203125 
L 10.59375 27.203125 
L 10.59375 35.5 
L 37.796875 35.5 
L 37.796875 62.703125 
z
" id="DejaVuSans-43"/>
     </defs>
     <use transform="translate(0 0.640625)" xlink:href="#DejaVuSans-102"/>
     <use transform="translate(35.205078 0.640625)" xlink:href="#DejaVuSans-40"/>
     <use transform="translate(74.21875 0.640625)" xlink:href="#DejaVuSans-Oblique-120"/>
     <use transform="translate(133.398438 0.640625)" xlink:href="#DejaVuSans-41"/>
     <use transform="translate(172.412109 0.640625)" xlink:href="#DejaVuSans-8796"/>
     <use transform="translate(256.201172 0.640625)" xlink:href="#DejaVuSans-Oblique-120"/>
     <use transform="translate(315.380859 0.640625)" xlink:href="#DejaVuSans-115"/>
     <use transform="translate(367.480469 0.640625)" xlink:href="#DejaVuSans-105"/>
     <use transform="translate(395.263672 0.640625)" xlink:href="#DejaVuSans-110"/>
     <use transform="translate(458.642578 0.640625)" xlink:href="#DejaVuSans-40"/>
     <use transform="translate(497.65625 0.640625)" xlink:href="#DejaVuSans-49"/>
     <use transform="translate(561.279297 0.640625)" xlink:href="#DejaVuSans-48"/>
     <use transform="translate(624.902344 0.640625)" xlink:href="#DejaVuSans-Oblique-960"/>
     <use transform="translate(704.589844 0.640625)" xlink:href="#DejaVuSans-8901"/>
     <use transform="translate(755.859375 0.640625)" xlink:href="#DejaVuSans-Oblique-120"/>
     <use transform="translate(815.039062 0.640625)" xlink:href="#DejaVuSans-41"/>
     <use transform="translate(873.535156 0.640625)" xlink:href="#DejaVuSans-43"/>
     <use transform="translate(976.806641 0.640625)" xlink:href="#DejaVuSans-50"/>
     <use transform="translate(1040.429688 0.640625)" xlink:href="#DejaVuSans-46"/>
     <use transform="translate(1072.216797 0.640625)" xlink:href="#DejaVuSans-48"/>
    </g>
   </g>
  </g>
 </g>
 <defs>
  <clipPath id="p0af0fa9ee6">
   <rect height="414.6912" width="752.184" x="121.32" y="64.6272"/>
  </clipPath>
 </defs>
</svg>
